<?xml version="1.0" standalone="no"?>
<!DOCTYPE svg PUBLIC "-//W3C//DTD SVG 20010904//EN"
 "http://www.w3.org/TR/2001/REC-SVG-20010904/DTD/svg10.dtd">
<svg version="1.0" xmlns="http://www.w3.org/2000/svg"
 width="1024.000000pt" height="1024.000000pt" viewBox="0 0 1024.000000 1024.000000"
 preserveAspectRatio="xMidYMid meet">

<g transform="translate(0.000000,1024.000000) scale(0.100000,-0.100000)"
fill="#000000" stroke="none">
<path d="M5121 9005 c-35 -30 -55 -84 -46 -125 4 -17 22 -47 41 -66 l34 -36 2
-257 c2 -162 7 -256 13 -256 6 0 11 95 13 258 2 239 4 258 20 255 15 -3 17
-25 20 -256 2 -235 11 -306 26 -213 3 21 6 136 6 255 l-1 217 30 29 c55 56 53
138 -5 189 -46 41 -108 43 -153 6z m143 -30 c20 -19 26 -33 26 -68 0 -53 -21
-83 -66 -96 -67 -19 -133 44 -120 115 14 70 106 99 160 49z"/>
<path d="M5147 7970 c-31 -25 -42 -65 -27 -101 21 -50 100 -58 138 -14 37 43
26 96 -25 123 -31 17 -57 15 -86 -8z m85 -17 c22 -20 23 -61 1 -85 -48 -53
-117 18 -72 75 24 31 45 34 71 10z"/>
<path d="M4300 7491 c0 -19 11 -19 273 -20 149 -1 278 3 286 8 40 26 -7 31
-280 31 -268 0 -279 -1 -279 -19z"/>
<path d="M5525 7502 c-3 -3 -5 -11 -5 -18 0 -19 576 -18 584 1 3 8 2 16 -2 18
-11 6 -570 5 -577 -1z"/>
<path d="M2170 7421 c0 -52 17 -79 27 -42 3 12 11 21 19 21 7 0 18 9 24 21 15
27 -3 49 -41 49 -28 0 -29 -2 -29 -49z m50 14 c0 -8 -4 -15 -10 -15 -5 0 -10
7 -10 15 0 8 5 15 10 15 6 0 10 -7 10 -15z"/>
<path d="M2262 7418 c3 -50 5 -53 32 -56 16 -2 33 1 39 7 8 8 3 11 -16 11 -17
0 -27 5 -27 15 0 8 9 15 20 15 11 0 20 5 20 10 0 6 -9 10 -20 10 -11 0 -20 5
-20 10 0 6 9 10 20 10 11 0 20 5 20 10 0 6 -16 10 -36 10 l-35 0 3 -52z"/>
<path d="M2352 7418 c2 -30 8 -53 16 -56 7 -2 12 5 12 17 0 27 14 27 33 -1 17
-27 33 -19 19 9 -7 12 -7 25 0 36 14 26 -8 47 -49 47 l-34 0 3 -52z m56 20
c-6 -18 -28 -21 -28 -4 0 9 7 16 16 16 9 0 14 -5 12 -12z"/>
<path d="M2452 7418 c3 -52 20 -69 26 -28 2 12 11 20 23 20 10 0 19 5 19 10 0
6 -9 10 -20 10 -11 0 -20 5 -20 10 0 6 9 10 20 10 11 0 20 5 20 10 0 6 -16 10
-36 10 l-35 0 3 -52z"/>
<path d="M2552 7458 c-17 -17 -15 -63 2 -78 23 -18 59 -8 75 22 14 24 14 28
-3 47 -21 23 -56 27 -74 9z m53 -38 c0 -28 -29 -40 -38 -15 -9 22 3 46 22 43
10 -2 16 -13 16 -28z"/>
<path d="M2650 7420 c0 -47 1 -50 26 -50 22 0 25 4 21 23 l-6 22 16 -22 c20
-30 31 -29 45 5 l12 27 4 -27 c6 -47 22 -31 22 22 0 56 -19 68 -38 25 -6 -14
-16 -25 -22 -25 -6 0 -16 11 -22 25 -7 16 -19 25 -35 25 -21 0 -23 -4 -23 -50z
m40 10 c0 -5 -2 -10 -4 -10 -3 0 -8 5 -11 10 -3 6 -1 10 4 10 6 0 11 -4 11
-10z"/>
<path d="M2830 7424 c-24 -56 -24 -54 -5 -54 8 0 15 5 15 10 0 6 9 10 20 10
11 0 20 -4 20 -10 0 -5 7 -10 14 -10 12 0 11 9 -6 50 -11 28 -24 50 -29 50 -4
0 -17 -21 -29 -46z"/>
<path d="M2930 7423 c0 -29 5 -53 10 -53 6 0 10 10 10 22 l0 21 23 -21 c13
-12 26 -22 30 -22 4 0 7 23 7 50 0 28 -4 50 -10 50 -5 0 -10 -15 -10 -32 l-1
-33 -29 35 -29 35 -1 -52z"/>
<path d="M3034 7445 c-15 -23 -15 -27 0 -51 13 -18 24 -24 43 -22 37 4 42 28
6 25 -24 -2 -28 2 -28 23 0 20 6 26 28 28 36 4 35 22 -3 22 -20 0 -35 -8 -46
-25z"/>
<path d="M3140 7420 l0 -50 38 1 c30 2 32 3 10 6 -32 5 -38 33 -8 33 11 0 20
5 20 10 0 6 -9 10 -20 10 -11 0 -20 5 -20 10 0 6 9 10 19 10 11 0 23 5 26 10
4 6 -8 10 -29 10 l-36 0 0 -50z"/>
<path d="M7200 7420 l0 -50 35 0 c19 0 35 5 35 10 0 6 -9 10 -20 10 -11 0 -20
7 -20 15 0 8 7 15 15 15 8 0 15 5 15 10 0 6 -7 10 -15 10 -26 0 -16 19 13 23
19 3 14 4 -15 6 l-43 1 0 -50z"/>
<path d="M7290 7420 c0 -55 17 -69 22 -17 l3 32 20 -32 c10 -18 23 -33 27 -33
4 0 8 23 8 51 0 32 -4 48 -10 44 -6 -4 -8 -15 -5 -26 9 -28 -9 -23 -25 6 -23
42 -40 31 -40 -25z"/>
<path d="M7396 7443 c21 -86 35 -93 58 -26 19 56 19 53 1 53 -8 0 -15 -9 -15
-19 0 -30 -17 -34 -24 -6 -4 14 -11 25 -16 25 -6 0 -8 -11 -4 -27z"/>
<path d="M7490 7415 c0 -30 5 -55 10 -55 6 0 10 9 10 20 0 26 8 25 30 -2 10
-13 22 -20 26 -16 4 4 1 14 -5 22 -9 11 -9 19 0 34 17 27 -3 52 -42 52 -28 0
-29 -1 -29 -55z m50 20 c0 -8 -7 -15 -15 -15 -8 0 -15 7 -15 15 0 8 7 15 15
15 8 0 15 -7 15 -15z"/>
<path d="M7592 7458 c-13 -13 -16 -57 -4 -74 26 -39 82 -19 82 29 0 38 -15 57
-45 57 -12 0 -26 -5 -33 -12z m53 -39 c0 -15 -7 -25 -18 -27 -22 -4 -33 24
-17 43 18 21 35 13 35 -16z"/>
<path d="M7690 7436 c0 -40 8 -66 21 -66 5 0 9 8 9 17 0 9 3 13 7 10 3 -4 12
-2 20 4 10 9 13 7 13 -10 0 -12 6 -21 16 -21 12 0 14 10 12 47 -4 54 -19 65
-37 26 l-13 -28 -14 28 c-20 37 -34 34 -34 -7z"/>
<path d="M7817 7463 c-4 -3 -7 -26 -7 -50 0 -32 4 -43 15 -43 9 0 15 9 16 23
l0 22 9 -22 c12 -30 24 -29 40 5 l14 27 4 -27 c6 -47 22 -31 22 22 0 56 -9 62
-38 23 l-19 -26 -18 26 c-18 28 -27 32 -38 20z"/>
<path d="M7954 7439 c3 -17 6 -40 6 -50 0 -14 7 -19 30 -19 17 0 30 5 30 10 0
6 -9 10 -20 10 -11 0 -20 5 -20 10 0 6 9 10 20 10 11 0 20 5 20 10 0 6 -9 10
-20 10 -11 0 -20 5 -20 10 0 6 6 10 14 10 8 0 18 5 21 10 4 6 -9 10 -31 10
-36 0 -36 -1 -30 -31z"/>
<path d="M8040 7420 c0 -27 5 -50 10 -50 6 0 10 11 10 25 0 14 4 25 8 25 5 0
15 -11 22 -25 23 -42 40 -31 40 25 0 28 -4 50 -10 50 -5 0 -10 -15 -10 -32 l0
-33 -21 33 c-31 48 -49 42 -49 -18z"/>
<path d="M8153 7456 c11 -8 17 -27 17 -50 0 -20 5 -36 10 -36 6 0 10 18 10 40
0 29 4 40 15 40 8 0 15 5 15 10 0 6 -19 10 -42 10 -38 -1 -41 -2 -25 -14z"/>
<path d="M5070 7434 c-177 -47 -318 -161 -404 -324 -98 -186 -100 -369 -4
-560 137 -273 447 -404 728 -306 173 60 322 213 382 391 31 93 33 289 5 375
-34 100 -66 156 -130 225 -159 174 -383 251 -577 199z m151 -96 c2 -185 12
-227 53 -241 21 -7 31 -6 38 4 8 11 9 10 5 -3 -4 -12 5 -22 33 -36 26 -13 41
-15 44 -8 2 6 5 0 5 -13 1 -13 4 -22 7 -18 4 3 15 -4 25 -16 10 -12 18 -16 19
-9 0 6 -4 12 -10 12 -5 0 -10 8 -10 17 0 15 2 15 14 -2 7 -11 15 -29 17 -40 3
-15 11 -19 33 -17 19 3 26 0 21 -7 -3 -6 -11 -9 -16 -6 -5 3 -6 -1 -3 -9 8
-20 34 -21 34 -2 0 7 9 16 20 19 11 3 20 1 20 -4 0 -5 -4 -9 -9 -9 -5 0 -12
-9 -16 -19 -4 -13 -12 -18 -23 -15 -14 5 -14 4 -3 -4 9 -7 23 -7 39 -1 28 11
62 -12 62 -40 0 -10 -5 -7 -13 8 -13 26 -37 40 -37 22 0 -6 9 -20 20 -31 26
-26 27 -60 1 -55 -19 3 -19 2 1 -43 27 -60 53 -103 60 -97 2 3 5 -1 5 -9 0
-16 44 -75 57 -75 5 -1 1 9 -10 22 -10 12 -12 16 -4 10 20 -18 30 -16 30 7 0
11 4 20 10 20 12 0 -24 -94 -54 -140 -38 -58 -123 -146 -173 -179 -25 -17 -71
-40 -102 -52 -70 -26 -184 -51 -193 -41 -3 4 -8 97 -9 207 l-4 200 38 20 c55
32 86 65 98 106 23 74 -14 150 -91 189 -38 19 -38 20 -44 92 -11 135 -18 348
-12 363 3 8 10 15 16 15 6 0 10 -36 11 -92z m-63 69 c7 -5 10 -13 6 -18 -3 -5
-10 -6 -16 -3 -7 4 -8 2 -4 -5 4 -6 11 -9 16 -6 4 2 7 -10 7 -28 0 -17 3 -109
7 -203 l8 -170 -42 -19 c-71 -32 -109 -99 -96 -170 8 -43 59 -103 103 -122
l33 -13 0 -210 c0 -116 -3 -210 -7 -210 -5 0 -46 9 -92 20 -109 26 -190 70
-271 147 -119 112 -178 241 -187 411 -5 81 -3 102 8 102 9 0 10 3 2 11 -13 13
-4 61 10 52 6 -3 7 -1 3 6 -11 17 3 51 22 51 14 0 14 2 3 9 -11 7 -10 14 5 39
13 23 21 28 30 21 8 -7 14 -7 19 1 3 5 1 10 -4 10 -17 0 -13 28 7 48 10 10 25
16 33 13 12 -4 12 -2 1 12 -12 14 -11 16 7 12 12 -2 21 1 21 6 0 6 4 8 8 5 4
-2 9 5 9 17 2 20 1 20 -8 5 -6 -10 -15 -18 -20 -18 -12 0 20 34 33 36 4 1 13
2 19 3 6 0 8 8 5 17 -6 15 -4 15 11 3 9 -8 14 -9 11 -4 -11 17 7 37 35 38 21
2 23 5 14 16 -10 12 -9 12 11 2 13 -7 26 -10 29 -7 4 3 13 0 21 -7 11 -8 14
-8 9 0 -9 15 2 45 14 37 5 -3 7 -9 4 -14 -3 -5 0 -12 6 -16 8 -4 9 -3 5 4 -4
7 -2 12 4 12 6 0 4 8 -6 17 -15 16 -17 16 -29 0 -11 -16 -13 -16 -19 -2 -3 9
-2 13 4 10 6 -3 10 -1 10 5 0 7 9 10 23 7 12 -2 33 -1 47 3 14 5 19 8 13 9
-22 2 -14 21 8 21 13 0 18 -4 13 -12 -4 -7 2 -5 13 5 11 9 23 14 26 10 4 -3 7
-1 7 4 0 12 18 12 38 0z m-208 -79 c0 -13 -23 -5 -28 10 -2 7 2 10 12 6 9 -3
16 -11 16 -16z m623 -312 c4 -10 1 -13 -9 -9 -15 6 -19 23 -5 23 5 0 11 -7 14
-14z m-58 -16 c-3 -5 -11 -10 -16 -10 -6 0 -7 5 -4 10 3 6 11 10 16 10 6 0 7
-4 4 -10z m-270 -74 c67 -28 93 -111 55 -173 -56 -92 -191 -78 -219 23 -16 59
6 110 64 146 36 22 55 22 100 4z m440 -24 c-3 -3 -11 0 -18 7 -9 10 -8 11 6 5
10 -3 15 -9 12 -12z m-42 -60 c5 -49 -8 -68 -15 -20 -5 29 1 73 7 66 2 -2 5
-22 8 -46z m39 -45 c-5 -19 -6 -19 -18 -2 -10 13 -10 20 -1 30 15 16 26 0 19
-28z m-32 -67 c0 -19 -28 -10 -33 10 -4 17 -2 18 14 9 10 -5 19 -14 19 -19z
m95 -10 c3 -5 -1 -10 -10 -10 -9 0 -13 5 -10 10 3 6 8 10 10 10 2 0 7 -4 10
-10z m-35 -15 c11 -13 10 -14 -4 -9 -9 3 -16 10 -16 15 0 13 6 11 20 -6z m7
-59 c0 -8 -6 -12 -15 -9 -11 5 -11 7 0 14 7 5 13 9 14 9 0 0 1 -6 1 -14z"/>
<path d="M5546 6877 c3 -10 9 -15 12 -12 3 3 0 11 -7 18 -10 9 -11 8 -5 -6z"/>
<path d="M5571 6844 c0 -11 3 -14 6 -6 3 7 2 16 -1 19 -3 4 -6 -2 -5 -13z"/>
<path d="M5100 7386 c0 -2 7 -7 16 -10 8 -3 12 -2 9 4 -6 10 -25 14 -25 6z"/>
<path d="M4891 7292 c-1 -7 -5 -10 -11 -7 -5 3 -10 0 -10 -8 0 -8 7 -17 14
-20 11 -4 13 -1 9 10 -4 10 -2 14 5 9 6 -3 14 -1 18 5 4 7 3 9 -4 5 -5 -3 -13
0 -15 6 -4 10 -6 10 -6 0z"/>
<path d="M4730 7145 c-7 -9 -10 -18 -6 -22 3 -3 6 -1 6 6 0 7 4 10 8 7 5 -3 9
1 9 9 0 19 -2 19 -17 0z"/>
<path d="M4218 6973 c-1 -480 -1 -457 -12 -490 -7 -21 -10 -20 -89 31 -103 67
-240 136 -337 169 -91 31 -338 94 -400 102 -25 4 -56 8 -69 11 -27 6 -27 -7 3
229 17 129 19 151 11 144 -6 -7 -53 -225 -65 -306 -6 -38 -12 -77 -14 -88 -3
-11 -5 -29 -6 -40 -1 -14 -5 -10 -11 13 -10 34 -22 38 -64 22 -14 -5 -24 -6
-21 -2 7 12 -116 -4 -219 -27 -117 -28 -276 -82 -269 -92 3 -5 -1 -6 -9 -4
-22 9 -214 -87 -327 -163 -122 -82 -223 -169 -214 -184 4 -6 2 -8 -4 -4 -12 7
-78 -60 -74 -75 1 -6 -2 -8 -7 -5 -11 7 -33 -19 -23 -28 4 -4 2 -6 -5 -4 -38
11 -335 -436 -318 -480 2 -7 1 -11 -4 -7 -11 6 -94 -202 -117 -295 -9 -36 -23
-99 -31 -140 -8 -41 -16 -86 -19 -100 -3 -14 -8 -76 -11 -137 l-6 -113 74 -2
74 -1 -90 -8 c-162 -13 -299 -10 -332 6 -30 15 -63 12 -63 -6 0 -5 -67 -9
-150 -9 -93 0 -150 -4 -150 -10 0 -6 55 -10 144 -10 115 0 146 -3 156 -15 16
-20 49 -19 71 1 16 14 40 15 216 8 114 -5 167 -10 126 -12 l-73 -3 0 -55 c0
-64 33 -286 55 -371 34 -132 69 -232 78 -226 6 3 7 1 4 -4 -7 -11 29 -103 40
-103 3 0 2 8 -2 18 -5 13 -4 14 6 5 10 -10 9 -15 -1 -28 -8 -10 -9 -15 -1 -15
6 0 10 -3 10 -7 -3 -21 2 -33 15 -33 8 0 17 -7 20 -16 9 -24 7 -31 -4 -14 -6
9 -10 10 -10 3 0 -6 7 -19 16 -27 8 -9 13 -16 9 -16 -3 0 2 -14 10 -30 9 -17
20 -28 25 -25 6 4 10 -5 10 -19 0 -14 9 -31 20 -39 11 -8 17 -17 12 -22 -4 -4
0 -6 9 -2 13 4 16 1 12 -14 -3 -11 0 -19 6 -19 7 0 9 5 6 10 -3 6 -1 10 5 10
7 0 10 6 7 13 -3 9 5 12 30 9 32 -4 34 -7 31 -36 -2 -24 -8 -31 -26 -32 -12
-1 -25 -3 -27 -6 -9 -9 21 -39 40 -42 14 -2 19 -10 17 -24 -2 -16 1 -19 18
-15 17 4 20 1 20 -25 0 -17 6 -32 15 -36 8 -3 14 -11 13 -17 -2 -6 4 -14 12
-16 13 -4 13 -3 0 6 -13 9 -13 11 2 11 9 0 18 -6 21 -12 3 -10 9 -10 26 0 29
17 41 15 41 -8 0 -16 -7 -20 -30 -20 -16 0 -30 -4 -30 -10 0 -5 7 -7 15 -4 8
4 15 1 15 -5 0 -6 7 -8 17 -4 13 5 15 2 10 -11 -4 -9 -3 -15 2 -12 10 7 23
-22 16 -34 -3 -5 -1 -11 5 -15 5 -3 10 -1 10 6 0 7 9 3 20 -9 11 -12 20 -26
20 -31 0 -14 49 -50 63 -47 7 1 8 1 4 -2 -18 -10 16 -32 41 -25 18 4 23 2 18
-6 -4 -6 -13 -9 -19 -5 -7 3 0 -5 16 -18 38 -33 136 -91 153 -91 8 0 14 -4 14
-9 0 -5 9 -4 19 2 13 7 22 7 26 0 6 -10 -1 -14 -18 -11 -5 1 -6 -3 -2 -9 4 -6
16 -8 27 -4 13 4 18 2 14 -4 -3 -6 -1 -14 5 -18 8 -4 9 -3 5 4 -5 8 2 12 18
12 16 0 26 -6 26 -15 0 -18 105 -69 121 -59 7 4 9 3 6 -3 -8 -12 141 -58 256
-79 45 -8 133 -17 194 -21 l113 -6 5 -31 c2 -17 12 -76 21 -131 55 -344 276
-735 551 -976 248 -219 541 -369 892 -459 107 -27 268 -50 359 -50 l72 0 0
-38 c0 -21 -6 -44 -12 -51 -10 -11 -10 -14 0 -18 8 -3 12 -26 12 -64 0 -54 -3
-62 -31 -87 -43 -38 -52 -113 -19 -155 54 -68 126 -72 180 -10 30 33 32 41 28
91 -4 45 -10 59 -31 77 -26 20 -27 23 -26 132 l0 111 92 6 c263 20 535 94 778
212 375 182 663 463 837 817 100 201 154 378 168 546 l7 81 81 1 c58 0 75 3
61 10 -15 7 -12 8 13 3 36 -6 162 5 162 15 0 3 -21 4 -47 2 -40 -3 -45 -1 -32
11 8 7 32 13 56 12 23 0 40 3 37 7 -3 5 8 11 23 15 40 8 101 33 84 33 -8 1
-12 3 -9 6 9 10 38 -7 38 -22 0 -8 5 -11 11 -8 6 4 8 13 5 21 -3 9 6 15 32 20
20 3 51 9 67 13 17 4 46 4 65 0 32 -7 33 -6 16 7 -19 13 -18 14 12 20 18 4 32
11 32 16 0 5 4 7 9 4 5 -4 12 0 15 6 5 10 7 10 12 1 7 -16 42 17 36 35 -2 6 3
12 12 12 9 0 16 5 16 12 0 9 3 9 12 0 7 -7 19 -12 28 -11 10 0 9 3 -5 9 -18 8
-18 9 5 10 14 1 19 4 13 7 -28 11 -12 31 24 31 21 0 39 5 41 11 2 6 9 11 16
11 7 0 21 8 32 18 10 10 27 21 37 25 9 3 17 12 17 19 0 7 9 19 21 26 15 10 19
10 14 1 -5 -7 -3 -10 5 -7 23 7 23 28 1 28 -12 0 -21 6 -21 15 0 8 9 15 20 15
11 0 20 5 20 10 0 6 8 10 18 9 10 0 12 -3 5 -6 -14 -5 -18 -33 -5 -33 20 0 62
50 62 74 0 17 5 26 16 26 17 0 44 23 44 38 0 5 9 17 20 27 11 10 20 23 20 29
0 8 -3 8 -8 0 -4 -6 -22 -15 -39 -19 l-33 -7 0 46 0 46 -40 0 c-33 0 -40 3
-40 20 0 17 -7 20 -40 20 -33 0 -40 -3 -40 -20 0 -13 -7 -20 -20 -20 -13 0
-20 7 -20 20 0 13 -7 20 -20 20 -13 0 -20 -7 -20 -19 0 -10 -7 -24 -15 -31
-10 -8 -15 -30 -15 -61 l0 -49 -105 0 c-98 0 -105 -1 -105 -20 0 -13 -7 -20
-20 -20 -13 0 -20 -7 -20 -20 0 -18 -7 -20 -60 -20 -53 0 -60 2 -60 20 0 19
-7 20 -100 20 -93 0 -100 1 -100 20 0 17 -7 20 -40 20 -33 0 -40 3 -40 20 0
14 -7 20 -21 20 -17 0 -20 5 -17 25 3 14 1 28 -5 32 -6 3 -7 1 -3 -5 10 -17
-22 -15 -40 2 -20 21 -17 27 9 21 12 -2 38 -1 57 4 33 8 31 9 -22 10 l-58 1 0
55 0 55 35 0 c40 0 50 -26 13 -33 l-23 -4 23 -2 c14 0 22 -8 22 -18 1 -15 29
50 30 67 0 3 11 -8 25 -25 19 -24 24 -26 25 -12 0 10 -4 16 -9 13 -5 -3 -11 3
-14 14 -4 15 -1 17 12 10 9 -5 24 -11 34 -14 9 -3 17 -14 17 -24 0 -19 29 -52
46 -52 4 0 -2 7 -14 16 -32 22 -26 58 11 62 19 2 27 -1 27 -12 0 -9 -3 -15 -7
-15 -22 4 -23 -3 -2 -20 35 -29 16 -54 -47 -62 -48 -6 -48 -7 13 -5 34 0 59 4
57 8 -3 5 0 8 5 8 6 0 11 -4 11 -10 0 -5 12 -9 28 -9 22 1 23 2 5 6 -26 5 -38
19 -47 54 -4 18 -1 31 9 39 8 7 13 16 10 20 -2 4 10 4 28 1 19 -4 36 -15 42
-29 13 -29 27 -28 23 1 -3 19 2 22 35 25 29 3 37 0 37 -13 0 -9 5 -13 10 -10
6 4 8 11 5 16 -4 5 15 10 42 10 47 2 47 2 13 9 l-35 7 31 2 c16 0 35 -4 42
-11 9 -9 12 -7 12 10 0 15 6 22 20 22 17 0 20 7 20 40 0 33 3 40 20 40 13 0
20 7 20 20 0 13 7 20 20 20 18 0 20 7 20 80 l0 80 140 0 140 0 0 40 c0 33 3
40 20 40 19 0 20 7 20 120 0 113 -1 120 -20 120 -17 0 -20 7 -20 40 l0 40 -40
0 -40 0 0 -40 c0 -33 -3 -40 -20 -40 -17 0 -20 7 -20 40 0 33 -3 40 -20 40
-17 0 -20 7 -20 40 0 33 -3 40 -20 40 -24 0 -40 28 -40 74 0 19 -6 41 -14 49
-8 8 -16 29 -18 47 -4 43 -28 53 -28 11 0 -16 -11 -65 -25 -108 -65 -207 -230
-367 -430 -418 -76 -19 -243 -20 -318 0 -216 56 -391 238 -436 453 -6 29 -11
66 -11 83 l0 30 -167 -1 c-256 -1 -235 -3 -231 23 3 22 5 22 198 27 107 3 188
8 178 12 -9 4 -26 4 -39 1 -15 -4 -20 -3 -15 5 4 7 12 12 17 12 19 0 38 27 42
61 3 28 4 25 7 -16 l2 -50 9 57 c4 31 22 87 38 123 17 37 28 71 25 76 -3 5 -1
8 4 7 6 -2 26 18 46 45 20 26 32 47 26 47 -5 0 -10 -5 -10 -11 0 -5 -5 -7 -12
-3 -6 4 -8 3 -5 -3 4 -6 -4 -23 -17 -38 -17 -20 -26 -24 -31 -15 -5 8 -4 11 2
7 6 -4 13 6 16 23 8 39 46 78 58 59 6 -11 12 -10 27 5 11 9 22 26 25 37 7 28
-2 23 -13 -7 -6 -14 -14 -22 -20 -19 -14 9 -12 21 5 39 9 8 15 19 15 23 -1 4
4 9 11 12 7 2 9 -1 5 -8 -9 -15 7 -14 22 1 9 9 15 9 23 1 7 -7 26 -2 66 20 41
22 52 32 41 39 -10 8 -9 9 4 4 10 -3 20 0 24 5 3 6 15 9 25 6 11 -3 19 -1 19
4 0 5 3 8 8 8 21 -4 32 3 32 19 0 14 9 17 48 17 41 0 47 3 50 23 2 14 10 22
22 22 10 0 21 6 24 13 5 10 7 10 12 0 3 -7 23 -13 45 -13 l39 0 0 60 c0 53 2
60 20 60 16 0 20 7 20 34 l0 33 -91 6 c-50 4 -95 9 -100 13 -5 3 -9 21 -9 40
0 21 4 33 10 29 6 -3 10 -1 10 6 0 7 -11 10 -30 7 -20 -3 -30 0 -30 9 0 7 -4
13 -10 13 -5 0 -10 21 -10 48 0 51 12 82 25 62 5 -8 10 -7 19 5 12 17 15 10
16 -50 1 -16 3 -17 10 -5 5 8 10 22 10 31 0 10 8 15 23 15 12 -1 21 4 19 12
-1 6 2 12 8 12 13 0 13 -17 0 -25 -5 -3 -10 -26 -10 -51 0 -24 5 -44 10 -44 6
0 10 20 10 45 0 33 4 45 14 45 11 0 16 -15 18 -52 3 -47 6 -52 31 -59 16 -4
25 -3 21 2 -3 5 -14 9 -25 9 -16 0 -19 7 -19 50 l0 50 40 0 c37 0 40 -2 40
-29 0 -22 -6 -30 -25 -35 -14 -4 -25 -12 -25 -18 0 -6 3 -8 7 -5 3 4 12 2 18
-3 17 -14 33 7 37 50 3 32 6 35 39 38 32 3 37 0 46 -25 12 -33 15 -75 4 -69
-4 3 -13 0 -21 -5 -11 -7 -8 -8 12 -5 15 3 29 -1 31 -7 2 -7 2 16 -1 51 l-4
62 35 0 c20 0 39 -4 42 -10 4 -6 13 -5 25 3 26 15 26 31 1 17 -11 -5 -21 -10
-23 -10 -2 0 -2 79 0 175 3 171 2 175 -18 175 -17 0 -20 6 -20 40 l0 40 40 0
c33 0 40 3 40 20 0 18 -7 20 -60 20 l-60 0 0 40 0 40 -40 0 c-33 0 -40 3 -40
20 0 13 -7 20 -20 20 -13 0 -20 7 -20 20 0 13 -7 20 -20 20 -13 0 -20 7 -20
20 0 17 -7 20 -41 20 l-41 0 3 43 4 42 -32 -3 c-18 -2 -33 -8 -33 -13 0 -5 -9
-9 -20 -9 -11 0 -20 5 -20 10 0 6 -9 10 -20 10 -13 0 -20 7 -20 20 0 17 7 20
48 21 26 1 3 5 -50 9 -54 4 -104 10 -113 14 -10 4 -15 20 -15 53 0 91 -69 397
-86 380 -3 -3 6 -60 21 -127 14 -67 28 -162 32 -210 l6 -88 -59 -4 c-190 -14
-547 -136 -718 -246 -23 -14 -57 -39 -78 -54 -71 -55 -68 -73 -68 458 0 470 0
474 -20 474 -20 0 -21 -4 -18 -476 3 -437 4 -477 20 -488 16 -11 9 -20 -62
-75 -106 -84 -248 -233 -349 -367 -99 -131 -191 -313 -256 -504 -25 -74 -65
-175 -90 -225 -53 -110 -175 -315 -187 -315 -5 0 -8 86 -6 190 3 175 2 190
-14 190 -17 0 -18 -16 -18 -192 l0 -193 -43 65 c-68 101 -173 306 -216 421
-153 407 -246 562 -485 807 -63 65 -166 155 -215 188 -1 2 4 13 13 26 14 20
16 77 16 485 0 405 -2 463 -15 463 -13 0 -15 -57 -17 -447z m-896 -260 c13
-12 21 -12 40 -2 20 11 22 11 10 -3 -9 -11 -10 -18 -2 -23 5 -3 10 -1 10 4 0
6 4 11 10 11 5 0 6 -7 3 -17 -4 -10 -2 -14 5 -9 6 3 16 -2 22 -11 8 -12 10
-13 7 -3 -3 10 2 16 14 16 14 0 16 -3 6 -15 -9 -11 -9 -13 0 -8 6 4 13 1 16
-5 3 -10 7 -10 19 -1 11 10 19 9 38 -4 13 -9 20 -11 15 -4 -6 10 -3 11 14 2
11 -7 21 -17 21 -24 0 -8 -3 -8 -9 2 -5 7 -11 9 -14 5 -3 -5 1 -14 8 -21 10
-10 14 -9 19 3 5 14 8 14 28 0 16 -11 25 -13 35 -4 10 8 13 6 13 -10 0 -15 4
-20 16 -15 11 4 12 8 4 13 -9 5 -9 9 -1 14 11 7 15 -5 12 -31 -1 -8 5 -10 14
-7 8 3 15 10 15 16 0 5 5 6 10 3 6 -4 8 -11 5 -16 -3 -5 1 -6 9 -3 9 3 16 1
16 -5 0 -6 8 -11 19 -11 10 0 24 -7 31 -15 7 -8 19 -15 26 -15 8 0 14 -8 14
-17 0 -15 -2 -16 -10 -3 -6 9 -10 10 -10 3 0 -7 8 -17 18 -22 12 -8 13 -10 3
-11 -8 0 -11 -3 -7 -7 4 -4 16 3 27 17 l20 25 -6 -25 c-6 -22 -6 -23 6 -8 11
13 18 15 29 7 13 -9 12 -10 -3 -5 -11 4 -16 2 -11 -5 3 -6 15 -9 25 -6 12 3
17 1 12 -6 -4 -6 2 -8 15 -5 13 4 20 2 16 -4 -3 -5 -15 -8 -25 -5 -10 3 -22 1
-25 -4 -5 -8 38 -14 80 -10 15 1 16 -2 7 -13 -10 -12 -6 -13 23 -6 20 4 34 4
31 -1 -3 -4 7 -15 22 -23 15 -8 24 -15 19 -16 -6 0 -1 -7 10 -15 19 -15 19
-15 0 -30 -11 -8 -16 -15 -10 -16 5 0 17 -2 26 -4 10 -2 21 2 25 7 3 7 1 8 -5
4 -18 -11 -14 9 3 24 13 11 14 10 10 -2 -3 -8 6 -24 20 -36 31 -27 34 -27 44
0 l8 22 5 -22 c4 -12 2 -20 -3 -16 -5 3 -9 0 -9 -5 0 -6 10 -12 23 -12 l22 -2
-22 -4 c-15 -3 -20 -9 -16 -20 5 -12 2 -15 -8 -11 -10 4 -15 -1 -16 -13 -1
-10 3 -19 8 -19 6 0 7 5 4 11 -4 6 0 9 11 7 12 -2 18 2 16 10 -1 8 2 11 8 7 6
-3 8 -11 5 -16 -4 -5 1 -9 10 -9 9 0 14 4 10 9 -3 5 -1 12 4 15 5 4 8 -5 7
-19 -3 -25 19 -54 31 -41 3 3 2 6 -3 6 -5 0 -10 9 -11 20 -1 11 2 20 8 20 5 0
9 -8 10 -17 0 -10 2 -26 4 -35 2 -10 -2 -18 -8 -18 -5 0 -8 -2 -5 -5 8 -8 39
6 33 15 -2 4 6 5 19 3 12 -3 23 -11 23 -19 0 -10 -4 -11 -13 -3 -9 7 -12 6
-10 -8 2 -10 12 -18 22 -19 35 -2 38 -4 26 -16 -7 -7 -12 -19 -12 -27 1 -13 3
-13 11 2 6 9 14 15 20 12 5 -4 9 -1 9 5 0 7 5 6 14 -2 14 -14 11 -38 -6 -38
-5 0 -6 5 -3 10 3 6 2 10 -3 10 -6 0 -13 -7 -16 -16 -3 -8 -2 -12 3 -9 5 3 13
1 16 -5 5 -8 11 -7 21 1 11 9 14 8 14 -4 0 -10 6 -14 15 -11 8 4 15 1 15 -6 0
-6 -4 -9 -9 -6 -4 3 -17 -1 -27 -9 -18 -14 -18 -15 7 -11 22 4 25 1 22 -18 -3
-13 2 -28 11 -35 11 -9 16 -10 16 -2 0 6 -6 11 -12 11 -13 0 10 20 23 20 15 0
3 -36 -16 -48 -12 -8 -13 -11 -4 -9 16 5 43 -28 35 -42 -3 -4 1 -8 9 -8 11 0
12 5 4 21 -9 19 -9 19 4 4 8 -10 17 -14 21 -11 4 4 3 -5 -3 -19 -7 -17 -7 -29
-1 -33 9 -6 14 8 11 27 0 4 6 5 15 1 9 -3 11 -8 6 -12 -14 -9 -17 -32 -8 -60
l8 -24 14 24 c10 19 13 20 14 6 0 -10 7 -20 15 -23 8 -4 12 -10 9 -15 -3 -5
-7 -21 -10 -35 -4 -23 -3 -24 18 -13 21 11 22 11 9 -5 -12 -14 -12 -16 3 -10
9 3 16 1 16 -5 0 -6 -8 -11 -17 -11 -15 0 -16 -2 -3 -9 8 -6 18 -7 22 -5 13 8
9 -21 -4 -34 -8 -8 -9 -12 -1 -12 6 0 13 5 15 12 2 6 10 8 16 4 17 -10 15 -24
-5 -29 -10 -2 -2 -3 17 -2 19 2 29 1 22 -2 -6 -2 -10 -8 -7 -13 3 -4 -4 -6
-15 -3 -21 6 -28 -11 -8 -23 7 -5 8 -3 3 7 -8 12 -6 12 9 0 12 -10 13 -16 6
-21 -8 -5 -7 -9 4 -13 9 -4 16 -13 16 -20 0 -8 9 -22 19 -31 11 -10 17 -24 14
-32 -3 -9 2 -12 19 -9 21 4 21 3 6 -9 -19 -14 -25 -32 -8 -21 14 9 13 -8 -2
-23 -9 -9 -7 -11 10 -7 16 3 19 0 15 -12 -5 -12 -3 -14 7 -8 10 6 10 4 2 -10
-7 -14 -6 -22 7 -34 9 -9 11 -12 4 -7 -8 5 -13 4 -13 -3 0 -6 7 -14 15 -17 10
-4 12 -11 6 -23 -6 -11 -4 -25 6 -41 8 -14 12 -17 9 -7 -3 9 -1 17 3 17 10 0
25 -30 22 -44 -1 -5 5 -16 14 -26 9 -9 18 -27 20 -40 2 -12 21 -43 42 -68 21
-25 45 -59 54 -76 8 -16 23 -30 33 -32 10 -1 21 -6 24 -10 12 -12 -216 6 -338
27 -341 58 -642 199 -915 430 -112 94 -161 147 -257 276 -213 284 -318 600
-318 952 0 127 1 129 42 94z m3778 -249 c-6 -51 -15 -105 -20 -120 -8 -28 -8
-28 -9 -4 -1 24 -2 24 -21 -8 -20 -33 -21 -62 -3 -126 3 -11 1 -16 -5 -12 -6
4 -8 -2 -5 -14 4 -14 0 -20 -11 -20 -14 0 -21 -19 -16 -45 1 -5 -4 -4 -11 2
-10 10 -10 18 -1 37 13 29 -1 44 -23 26 -13 -11 -15 11 -15 167 0 159 2 182
18 195 9 9 26 18 37 20 13 2 21 12 23 31 2 18 9 27 21 27 12 0 22 14 32 43
l14 42 3 -75 c2 -41 -2 -116 -8 -166z m-3623 194 c-3 -8 -6 -5 -6 6 -1 11 2
17 5 13 3 -3 4 -12 1 -19z m157 -43 c-4 -8 -11 -12 -16 -9 -6 4 -5 10 3 15 19
12 19 11 13 -6z m3434 -330 c0 -23 -2 -24 -13 -8 -7 9 -11 23 -8 30 8 20 21 6
21 -22z m-4992 -42 c-10 -10 -19 5 -10 18 6 11 8 11 12 0 2 -7 1 -15 -2 -18z
m4484 -263 c0 -93 1 -100 20 -100 13 0 20 -7 20 -20 0 -13 7 -20 20 -20 17 0
20 -7 20 -40 l0 -40 -40 0 -40 0 0 -80 0 -80 45 0 c38 0 45 -3 45 -20 0 -11
-4 -20 -9 -20 -5 0 -7 -9 -4 -20 3 -12 0 -20 -6 -20 -7 0 -9 -5 -6 -10 11 -17
-19 -56 -97 -128 -19 -17 -25 -19 -25 -7 0 8 4 15 9 15 13 0 31 21 45 53 8 17
20 27 33 27 17 0 21 5 18 28 -3 27 -4 27 -65 23 l-63 -3 0 41 c0 34 -3 41 -20
41 -13 0 -20 7 -20 20 0 13 -7 20 -20 20 -11 0 -20 -7 -20 -15 0 -8 -9 -15
-20 -15 -11 0 -20 7 -20 15 0 8 -9 15 -20 15 -11 0 -20 -7 -20 -15 0 -9 -10
-15 -27 -16 -16 0 -57 -3 -93 -5 l-66 -4 4 34 c2 18 -1 37 -7 40 -6 4 -11 25
-11 47 0 32 3 39 20 39 16 0 20 7 20 34 0 36 12 46 55 46 23 0 35 17 35 50 0
14 9 20 38 22 35 3 37 5 40 41 3 31 7 37 26 37 52 0 86 12 86 31 0 12 7 19 20
19 13 0 20 7 20 20 0 17 7 20 40 20 l40 0 0 -100z m1042 55 c12 -12 -5 -54
-21 -53 -9 1 -26 -2 -38 -6 -12 -4 -24 -3 -27 2 -3 5 -26 8 -50 6 -25 -2 -47
0 -50 5 -3 5 27 9 66 10 70 1 97 9 69 19 -11 4 -11 6 0 13 16 10 43 12 51 4z
m-4979 -67 c26 -2 33 -8 35 -30 3 -22 -2 -29 -22 -34 -27 -7 -30 -22 -6 -41
13 -10 12 -11 -5 -8 -11 2 -23 4 -27 4 -5 1 -8 11 -8 24 0 18 -2 19 -10 7 -8
-13 -10 -12 -11 5 -5 54 -4 73 3 69 4 -3 9 5 9 18 1 16 3 18 6 6 3 -10 16 -18
36 -20z m61 23 c3 -5 0 -11 -7 -14 -8 -3 -14 1 -14 9 0 16 13 19 21 5z m153
-6 c-9 -23 10 -28 45 -11 36 18 52 20 43 6 -5 -9 61 -5 93 5 7 3 10 0 7 -5 -3
-6 -2 -10 3 -10 6 0 13 7 16 16 5 14 9 14 22 3 13 -10 17 -10 24 1 6 10 14 7
34 -15 14 -15 26 -23 26 -16 0 6 7 11 15 11 8 0 15 5 15 10 0 7 6 8 17 1 12
-7 21 -5 30 7 10 13 10 7 -1 -20 -9 -23 -11 -40 -5 -43 5 -4 8 -19 7 -35 -1
-16 -6 -26 -10 -24 -4 3 -8 -1 -8 -8 0 -10 -2 -11 -8 0 -5 7 -16 10 -24 7 -9
-4 -19 -1 -23 5 -5 8 -10 8 -20 0 -8 -7 -18 -9 -24 -6 -5 3 -11 2 -13 -4 -2
-6 -14 -4 -30 5 -16 7 -28 11 -28 7 0 -4 -21 -7 -48 -7 -45 0 -48 2 -67 40
l-20 40 -3 -41 c-3 -41 -3 -41 -43 -41 -32 0 -43 4 -50 21 -9 21 -9 20 -5 -1
4 -22 1 -23 -60 -23 l-64 0 0 53 c0 41 4 55 20 65 11 7 20 8 20 3 0 -14 103
-7 108 7 2 7 6 12 9 12 3 0 3 -7 0 -15z m4528 4 c-4 -6 -10 -8 -13 -5 -3 3
-11 1 -19 -6 -11 -8 -12 -7 -7 6 3 9 15 16 26 16 11 0 16 -5 13 -11z m-4969
-51 c-3 -29 -6 -81 -6 -115 0 -49 -3 -63 -15 -63 -12 0 -15 -15 -15 -74 l0
-73 -31 -7 c-17 -3 -44 -6 -60 -6 -29 0 -29 -1 -29 -59 0 -102 -12 -181 -26
-181 -9 0 -14 -12 -14 -35 0 -21 -5 -35 -12 -36 -7 -1 -79 -3 -160 -5 l-148
-3 0 40 c0 31 4 39 19 39 15 0 19 11 25 61 3 34 6 88 6 120 l0 59 34 0 33 0 7
61 c3 34 6 106 6 160 0 81 3 99 15 99 8 0 15 9 15 20 0 13 7 20 20 20 11 0 20
7 20 15 0 13 25 15 161 15 l162 0 -7 -52z m4833 33 c12 -8 12 -12 2 -24 -8
-10 -9 -17 -1 -22 5 -3 10 -17 10 -30 0 -12 8 -26 17 -29 13 -5 14 -9 4 -19
-10 -9 -14 -8 -22 6 -6 9 -14 15 -20 12 -17 -11 -49 6 -49 26 0 10 5 19 11 19
8 0 8 4 1 13 -6 7 -9 23 -5 35 6 23 28 28 52 13z m-311 -97 c-7 -15 -14 -21
-16 -15 -2 7 2 18 8 26 18 22 21 18 8 -11z m-98 -44 c0 -5 -2 -10 -4 -10 -3 0
-8 5 -11 10 -3 6 -1 10 4 10 6 0 11 -4 11 -10z m73 -3 c-40 -65 -99 -147 -106
-147 -5 0 -3 7 4 16 7 9 12 29 11 45 -3 28 4 34 37 30 7 -2 10 2 6 8 -3 6 1
14 9 17 8 3 18 14 21 25 4 10 11 19 16 19 6 0 6 -6 2 -13z m-2260 -8 c-6 -6
-9 -19 -6 -28 4 -13 3 -13 -5 -2 -12 16 -5 41 11 41 8 0 8 -3 0 -11z m2800
-136 c-7 -2 -19 -2 -25 0 -7 3 -2 5 12 5 14 0 19 -2 13 -5z m-673 -48 c-33
-36 -46 -31 -13 5 14 17 29 28 31 25 3 -3 -5 -16 -18 -30z m-91 -109 c-18 -17
-25 -22 -16 -10 9 11 14 24 10 29 -5 4 -2 5 5 1 12 -7 16 3 13 34 -1 11 2 9
10 -4 10 -15 6 -23 -22 -50z m-3564 -16 c133 -22 239 -72 328 -157 25 -23 47
-40 51 -37 3 2 4 1 1 -3 -8 -10 26 -43 38 -36 5 3 7 2 4 -4 -3 -5 6 -29 20
-54 42 -73 65 -140 77 -224 l12 -80 40 4 c21 2 102 0 179 -4 139 -7 140 -7
140 -31 l0 -24 -176 0 -176 0 -21 -86 c-72 -290 -285 -473 -571 -491 -226 -14
-446 101 -557 290 -36 61 -78 179 -89 250 l-6 38 -147 -1 c-81 -1 -153 -1
-159 0 -8 0 -13 14 -13 35 0 26 -7 43 -27 61 -14 13 -24 26 -22 28 7 7 44 -27
52 -46 5 -14 19 -18 69 -19 35 0 104 -3 154 -5 l90 -5 16 92 c48 267 232 456
493 504 88 17 125 17 200 5z m3995 -76 c0 -2 -13 -10 -30 -19 -17 -9 -30 -11
-30 -5 0 5 7 10 15 10 8 0 15 4 15 8 0 5 7 9 15 9 8 0 15 -2 15 -3z m-3531
-55 c-13 -24 -14 -24 -14 5 0 14 5 22 12 19 9 -4 10 -10 2 -24z m56 -8 c3 -5
2 -12 -3 -15 -5 -3 -9 1 -9 9 0 17 3 19 12 6z m2835 -42 c-78 -66 -106 -83
-116 -68 -4 7 -3 9 4 6 5 -4 29 9 52 28 23 19 46 35 52 35 6 0 8 7 5 14 -4 10
-1 13 9 9 7 -3 14 1 14 8 0 7 3 9 7 5 5 -4 -8 -21 -27 -37z m-2861 -26 c-7
-10 -15 -20 -16 -22 -2 -2 -3 5 -3 17 0 14 6 22 16 22 14 0 15 -3 3 -17z m86
-23 c3 -5 -1 -10 -10 -10 -9 0 -13 5 -10 10 3 6 8 10 10 10 2 0 7 -4 10 -10z
m2645 -45 c-7 -9 -15 -13 -19 -10 -3 3 1 10 9 15 21 14 24 12 10 -5z m-2730
-39 c0 -3 -4 -8 -10 -11 -5 -3 -10 -1 -10 4 0 6 5 11 10 11 6 0 10 -2 10 -4z
m2650 -10 c0 -3 -4 -8 -10 -11 -5 -3 -10 -1 -10 4 0 6 5 11 10 11 6 0 10 -2
10 -4z m-51 -32 c-36 -20 -45 -17 -19 6 12 11 27 17 33 13 5 -3 -1 -12 -14
-19z m631 2 c0 -3 -4 -8 -10 -11 -5 -3 -10 -1 -10 4 0 6 5 11 10 11 6 0 10 -2
10 -4z m-3206 -52 c3 -8 2 -12 -4 -9 -6 3 -10 10 -10 16 0 14 7 11 14 -7z
m2466 1 c-30 -17 -40 -18 -40 -6 0 8 22 16 55 19 6 1 -1 -5 -15 -13z m-62 -26
c-25 -14 -103 -41 -94 -32 9 10 87 42 101 42 6 0 2 -4 -7 -10z m-152 -55 c-22
-8 -45 -13 -50 -10 -6 2 5 8 24 14 52 15 71 13 26 -4z m-2226 -39 c0 -5 -5 -3
-10 5 -5 8 -10 20 -10 25 0 6 5 3 10 -5 5 -8 10 -19 10 -25z m1750 25 c0 -6
27 -10 60 -10 48 0 60 -3 60 -16 0 -12 7 -14 30 -9 47 10 191 14 155 4 -51
-15 -225 -38 -335 -45 l-105 -6 40 36 c22 19 46 36 53 36 6 0 12 5 12 10 0 6
7 10 15 10 8 0 15 -4 15 -10z m409 -4 c-12 -10 -60 -16 -54 -6 3 5 18 10 32
10 15 0 24 -2 22 -4z m-3791 -21 c3 -3 -11 -5 -32 -5 -21 0 -46 -5 -57 -11
-18 -9 -19 -9 -7 10 10 17 20 20 52 16 21 -2 41 -7 44 -10z m-124 -31 c3 -8 2
-12 -4 -9 -6 3 -10 10 -10 16 0 14 7 11 14 -7z m276 -4 c-8 -5 -24 -9 -35 -9
-16 1 -16 2 5 9 35 11 48 11 30 0z m-135 -20 c26 -29 24 -79 -4 -102 -48 -38
-111 -10 -113 51 -2 62 77 96 117 51z m-145 -35 l0 -35 -109 0 c-60 0 -115 -2
-123 -3 -7 -2 -10 -2 -5 0 4 3 7 16 7 29 0 24 0 24 111 24 71 0 108 4 104 10
-3 6 -1 10 4 10 6 0 11 -16 11 -35z m2216 10 c15 -23 15 -27 0 -51 -22 -32
-55 -29 -76 9 -14 27 -14 29 9 48 31 25 47 24 67 -6z m2254 -4 c20 -39 -22
-82 -60 -61 -23 12 -28 65 -7 73 27 12 57 6 67 -12z m-941 -52 c78 -1 145 1
148 5 3 3 -9 6 -28 7 -19 0 -28 3 -21 6 26 10 291 -40 402 -77 179 -58 383
-162 513 -260 28 -22 55 -36 60 -33 6 3 7 2 4 -4 -4 -6 17 -30 46 -54 28 -24
67 -61 85 -81 19 -21 38 -36 42 -33 5 3 12 0 16 -6 4 -8 3 -9 -4 -5 -24 14
-11 -6 49 -77 169 -201 297 -469 343 -719 22 -117 38 -357 30 -460 l-7 -86
-36 5 c-272 38 -385 66 -564 139 -115 47 -159 70 -270 141 l-68 44 21 26 c21
26 28 69 10 58 -6 -4 -8 -11 -4 -16 3 -5 1 -8 -4 -7 -5 2 -18 -8 -30 -22 l-20
-24 -48 39 c-228 184 -386 380 -518 644 -79 156 -216 522 -216 576 0 41 -27
120 -74 214 -20 40 -36 75 -36 77 0 3 8 0 18 -5 11 -6 83 -11 161 -12z m-3046
-24 c-3 -8 -9 -13 -13 -10 -4 2 -71 5 -148 6 -103 0 -140 4 -136 12 3 9 46 11
154 9 125 -3 148 -5 143 -17z m1611 -1 c3 -8 2 -12 -4 -9 -6 3 -10 10 -10 16
0 14 7 11 14 -7z m4033 -16 c-3 -7 -5 -2 -5 12 0 14 2 19 5 13 2 -7 2 -19 0
-25z m-6124 7 c-3 -9 -8 -14 -10 -11 -3 3 -2 9 2 15 9 16 15 13 8 -4z m162
-21 c-26 -20 -55 -36 -55 -30 0 5 63 46 70 46 3 -1 -4 -8 -15 -16z m-85 -24
c8 -5 11 -10 5 -10 -5 0 -17 5 -25 10 -8 5 -10 10 -5 10 6 0 17 -5 25 -10z
m2250 -74 c0 -2 -7 -7 -16 -10 -8 -3 -12 -2 -9 4 6 10 25 14 25 6z m-2377 -36
c4 -15 13 -20 39 -18 l33 1 -32 4 c-20 3 -33 10 -33 19 0 10 13 14 50 14 44 0
50 -2 50 -21 0 -12 8 -23 20 -26 14 -4 20 -14 20 -34 0 -25 -4 -29 -29 -29
-25 0 -30 5 -34 28 -4 25 -4 25 -3 -3 1 -27 4 -30 39 -33 35 -3 37 -5 39 -40
l1 -37 4 33 c4 32 33 47 33 17 0 -8 6 -15 14 -15 7 0 16 -9 19 -20 4 -16 14
-20 45 -20 41 0 41 0 44 -42 3 -40 5 -43 35 -46 28 -3 32 -7 35 -35 2 -24 8
-33 26 -35 14 -2 22 -10 22 -23 0 -13 7 -19 21 -19 19 0 21 -4 15 -37 -3 -21
-6 -46 -6 -55 0 -12 -10 -18 -37 -20 -36 -3 -38 -5 -41 -39 -3 -35 -5 -37 -49
-43 -25 -3 -59 -6 -74 -6 -27 0 -29 3 -29 39 0 38 1 40 38 44 20 3 3 4 -38 3
l-75 -1 3 32 c4 27 9 32 36 36 l31 4 -33 1 c-26 2 -35 -3 -39 -18 -4 -16 -14
-20 -44 -20 l-39 0 0 60 0 60 -80 0 -80 0 0 76 c0 67 -2 76 -20 81 -11 3 -20
14 -20 24 0 12 7 19 20 19 18 0 20 7 20 80 l0 80 39 0 c30 0 40 -4 44 -20z
m2214 -50 c-14 -11 -28 -20 -32 -20 -10 0 38 39 49 40 5 0 -3 -9 -17 -20z
m-2017 -30 c0 -13 -7 -20 -20 -20 -13 0 -20 7 -20 20 0 13 7 20 20 20 13 0 20
-7 20 -20z m1970 -1 c0 -6 -4 -7 -10 -4 -5 3 -10 11 -10 16 0 6 5 7 10 4 6 -3
10 -11 10 -16z m1005 -113 c-46 -154 -92 -269 -176 -445 -105 -218 -187 -339
-343 -499 -89 -92 -222 -202 -243 -202 -10 0 -23 22 -23 40 0 5 24 26 52 47
117 85 208 178 329 339 95 127 184 295 279 528 79 195 150 340 157 319 2 -5
-12 -63 -32 -127z m-1120 66 l8 -27 12 29 c7 17 15 24 19 18 4 -6 14 -8 24 -5
9 3 -12 -16 -48 -42 -36 -27 -71 -55 -78 -62 -8 -7 -18 -10 -24 -7 -6 4 -8 3
-5 -3 3 -5 -11 -27 -32 -47 -31 -30 -40 -34 -44 -22 -4 9 -1 15 6 13 7 -1 11
5 9 13 -2 8 -1 12 3 8 12 -12 43 24 38 43 -3 11 -9 19 -14 19 -5 0 -9 14 -9
30 0 23 4 30 20 30 13 0 20 7 20 19 0 16 7 19 44 19 39 0 45 -3 51 -26z m1325
-179 c0 -65 3 -162 7 -215 l6 -98 -31 0 -32 0 0 73 c0 39 3 136 7 215 6 129 8
142 25 142 16 0 18 -10 18 -117z m-2814 27 c0 -12 -4 -16 -9 -11 -5 5 -6 14
-3 20 10 15 12 14 12 -9z m1311 -46 c-3 -3 -12 -4 -19 -1 -8 3 -5 6 6 6 11 1
17 -2 13 -5z m-1277 -8 c0 -2 -7 -7 -16 -10 -8 -3 -12 -2 -9 4 6 10 25 14 25
6z m13 -102 c-7 -20 -10 -18 -15 11 -4 20 -2 23 8 14 7 -6 10 -17 7 -25z m47
32 c0 -2 -8 -10 -17 -17 -16 -13 -17 -12 -4 4 13 16 21 21 21 13z m1150 0 c0
-2 -8 -10 -17 -17 -16 -13 -17 -12 -4 4 13 16 21 21 21 13z m-1152 -46 c-7
-10 -14 -18 -15 -16 -6 6 9 36 18 36 5 0 4 -9 -3 -20z m-68 -25 c0 -8 -4 -15
-10 -15 -5 0 -10 7 -10 15 0 8 5 15 10 15 6 0 10 -7 10 -15z m2808 -198 c2
-10 1 -30 -2 -43 -6 -21 -12 -25 -39 -22 -27 2 -33 8 -35 31 -2 16 2 35 9 43
17 20 63 14 67 -9z m1700 -12 c-3 -3 -9 2 -12 12 -6 14 -5 15 5 6 7 -7 10 -15
7 -18z m19 3 c-3 -8 -6 -5 -6 6 -1 11 2 17 5 13 3 -3 4 -12 1 -19z m-5200 -37
c0 -11 -5 -18 -9 -15 -4 3 -5 11 -1 19 7 21 12 19 10 -4z m1656 -26 c-3 -9 -8
-14 -10 -11 -3 3 -2 9 2 15 9 16 15 13 8 -4z m-663 -40 c0 -25 0 -26 86 -24
64 1 89 -2 95 -12 5 -8 9 -9 9 -4 0 12 -20 44 -20 32 0 -4 -9 -3 -20 3 -14 7
-20 7 -20 0 0 -5 -9 -10 -20 -10 -11 0 -20 4 -20 10 0 5 7 7 15 4 8 -4 15 -1
15 5 0 6 9 11 20 11 11 0 20 -4 20 -9 0 -4 11 -6 25 -3 20 3 24 1 19 -12 -3
-9 -1 -16 5 -16 6 0 11 7 11 16 0 15 2 15 25 0 19 -13 30 -14 45 -6 12 7 20 7
20 1 0 -5 15 -11 33 -13 28 -3 32 -7 31 -30 -1 -18 3 -25 12 -21 19 7 17 -4
-5 -36 -11 -15 -18 -39 -17 -54 3 -21 -1 -27 -15 -27 -17 0 -24 11 -20 33 1 9
-28 8 -52 -2 -17 -6 -17 -8 -3 -20 9 -8 16 -28 16 -47 0 -32 -2 -34 -34 -34
-31 0 -34 3 -38 35 -3 29 -1 35 14 35 13 0 18 8 18 25 0 16 -6 25 -15 25 -8 0
-15 -5 -15 -11 0 -16 -59 34 -60 51 0 13 -2 13 -9 1 -5 -8 -7 -21 -3 -29 4
-13 -2 -14 -36 -9 -22 4 -52 3 -67 -3 -20 -8 -27 -7 -31 5 -4 8 -10 12 -15 9
-5 -3 -7 -8 -5 -12 2 -4 -17 -7 -42 -7 l-47 0 0 62 c0 60 1 63 27 68 15 4 32
4 38 0 6 -4 10 4 10 19 0 14 5 26 10 26 6 0 10 -11 10 -25z m643 0 c-3 -9 -8
-14 -10 -11 -3 3 -2 9 2 15 9 16 15 13 8 -4z m1827 -105 l0 -120 33 0 c58 0
185 -38 260 -77 81 -43 197 -151 241 -225 14 -25 41 -83 58 -129 31 -81 32
-90 33 -234 0 -137 -2 -156 -26 -222 -58 -158 -187 -302 -333 -373 -77 -37
-189 -69 -243 -70 -23 0 -23 -1 -23 -165 0 -158 -1 -165 -20 -165 -19 0 -20 7
-20 164 l0 163 -65 7 c-81 8 -190 45 -262 88 -74 44 -170 139 -215 213 -63
103 -91 202 -96 340 -5 150 6 210 63 324 100 198 299 338 509 358 l62 5 -4 64
c-2 35 -1 89 3 119 5 45 10 55 26 55 18 0 19 -8 19 -120z m-2897 90 c4 -16 0
-20 -19 -20 -17 0 -24 6 -24 20 0 13 7 20 19 20 10 0 21 -9 24 -20z m390 13
c-7 -2 -19 -2 -25 0 -7 3 -2 5 12 5 14 0 19 -2 13 -5z m80 0 c-7 -2 -19 -2
-25 0 -7 3 -2 5 12 5 14 0 19 -2 13 -5z m4451 -8 c3 -8 1 -15 -4 -15 -6 0 -10
7 -10 15 0 8 2 15 4 15 2 0 6 -7 10 -15z m496 5 c0 -5 -4 -10 -10 -10 -5 0
-10 5 -10 10 0 6 5 10 10 10 6 0 10 -4 10 -10z m-275 -18 c-3 -3 -11 0 -18 7
-9 10 -8 11 6 5 10 -3 15 -9 12 -12z m-180 -51 c3 -28 1 -49 -7 -59 -10 -13
-10 -14 0 -8 7 4 12 2 12 -4 0 -7 -7 -9 -16 -6 -9 3 -22 6 -29 6 -16 0 -45 27
-45 41 0 6 7 6 19 -1 11 -5 26 -10 33 -10 7 1 -2 7 -19 15 -33 14 -41 29 -23
40 6 4 8 10 5 15 -4 6 47 18 62 15 1 -1 5 -20 8 -44z m-3935 -27 c0 -8 -4 -12
-10 -9 -5 3 -10 10 -10 16 0 5 5 9 10 9 6 0 10 -7 10 -16z m3714 -90 c3 -8 2
-12 -4 -9 -6 3 -10 10 -10 16 0 14 7 11 14 -7z m1302 -63 c-6 -9 -46 -22 -46
-15 0 3 10 9 23 14 29 11 29 11 23 1z m-5079 -53 c-3 -8 -6 -5 -6 6 -1 11 2
17 5 13 3 -3 4 -12 1 -19z m-30 -175 c-3 -10 -5 -4 -5 12 0 17 2 24 5 18 2 -7
2 -21 0 -30z m4813 -28 c0 -8 -7 -15 -15 -15 -13 0 -14 3 -3 15 16 18 18 18
18 0z m-3855 -45 c17 -18 15 -20 -69 -75 -214 -140 -511 -241 -774 -264 -67
-6 -85 -4 -89 7 -10 24 10 31 124 47 255 36 500 125 708 259 39 24 73 45 76
45 3 1 14 -8 24 -19z m-968 -12 c-3 -8 -6 -5 -6 6 -1 11 2 17 5 13 3 -3 4 -12
1 -19z m-600 -154 c-3 -3 -12 -4 -19 -1 -8 3 -5 6 6 6 11 1 17 -2 13 -5z m590
-91 c-2 -16 -4 -5 -4 22 0 28 2 40 4 28 2 -13 2 -35 0 -50z m-484 50 c-7 -2
-19 -2 -25 0 -7 3 -2 5 12 5 14 0 19 -2 13 -5z m37 -3 c0 -5 -4 -10 -10 -10
-5 0 -10 5 -10 10 0 6 5 10 10 10 6 0 10 -4 10 -10z m130 -34 c0 -3 -4 -8 -10
-11 -5 -3 -10 -1 -10 4 0 6 5 11 10 11 6 0 10 -2 10 -4z m4308 -43 c-10 -2
-28 -2 -40 0 -13 2 -5 4 17 4 22 1 32 -1 23 -4z m-2942 -668 c31 -48 -17 -98
-71 -73 -24 11 -30 25 -25 58 6 46 69 56 96 15z m1884 10 c0 -8 5 -15 11 -15
5 0 7 6 4 13 -4 6 1 3 9 -8 9 -10 15 -24 13 -30 -5 -13 -60 -15 -68 -3 -3 5
-9 3 -12 -6 -4 -9 -3 -15 1 -15 4 1 17 1 30 0 35 -2 26 -18 -10 -17 -29 1 -33
5 -35 31 -2 31 21 65 44 65 7 0 13 -7 13 -15z m-950 -885 c0 -343 0 -350 -20
-350 -19 0 -20 7 -20 148 0 81 -3 238 -7 350 l-6 202 26 0 27 0 0 -350z m27
-390 c53 -32 56 -98 8 -146 -33 -33 -84 -32 -119 2 -48 49 -33 129 29 155 31
12 48 10 82 -11z"/>
<path d="M4047 6380 c10 -11 21 -20 25 -20 4 0 0 9 -9 20 -10 11 -21 20 -25
20 -4 0 0 -9 9 -20z"/>
<path d="M4070 6340 c-12 -8 -10 -9 7 -7 12 2 26 6 29 10 11 11 -19 8 -36 -3z"/>
<path d="M4170 6282 c0 -4 9 -13 20 -20 11 -7 20 -9 20 -4 0 4 -9 13 -20 20
-11 7 -20 9 -20 4z"/>
<path d="M4360 6096 c0 -2 7 -7 16 -10 8 -3 12 -2 9 4 -6 10 -25 14 -25 6z"/>
<path d="M4465 5970 c-3 -6 1 -7 9 -4 18 7 21 14 7 14 -6 0 -13 -4 -16 -10z"/>
<path d="M4640 5751 c0 -6 4 -12 8 -15 5 -3 9 1 9 9 0 8 -4 15 -9 15 -4 0 -8
-4 -8 -9z"/>
<path d="M4626 5725 c4 -8 11 -15 16 -15 6 0 5 6 -2 15 -7 8 -14 15 -16 15 -2
0 -1 -7 2 -15z"/>
<path d="M7082 6465 c0 -16 2 -22 5 -12 2 9 2 23 0 30 -3 6 -5 -1 -5 -18z"/>
<path d="M7040 6450 c0 -11 4 -20 9 -20 6 0 9 9 8 20 -1 11 -5 20 -9 20 -4 0
-8 -9 -8 -20z"/>
<path d="M6480 5740 c0 -13 7 -20 20 -20 13 0 20 7 20 20 0 13 -7 20 -20 20
-13 0 -20 -7 -20 -20z"/>
<path d="M2615 5940 c-3 -5 -1 -10 4 -10 6 0 11 5 11 10 0 6 -2 10 -4 10 -3 0
-8 -4 -11 -10z"/>
<path d="M2740 5940 c-13 -8 -12 -10 3 -10 9 0 17 5 17 10 0 12 -1 12 -20 0z"/>
<path d="M3134 5919 c-3 -5 -3 -10 0 -10 13 -3 22 -6 39 -14 31 -13 29 2 -2
18 -18 9 -33 11 -37 6z"/>
<path d="M2723 5903 c9 -2 23 -2 30 0 6 3 -1 5 -18 5 -16 0 -22 -2 -12 -5z"/>
<path d="M2846 5897 c3 -10 9 -15 12 -12 3 3 0 11 -7 18 -10 9 -11 8 -5 -6z"/>
<path d="M6811 5734 c0 -11 3 -14 6 -6 3 7 2 16 -1 19 -3 4 -6 -2 -5 -13z"/>
<path d="M3000 5315 c0 -10 -10 -15 -30 -15 -40 0 -136 -37 -186 -71 -59 -40
-102 -93 -137 -168 -29 -61 -31 -75 -31 -171 -1 -92 3 -112 25 -161 15 -30 40
-71 58 -91 17 -20 31 -40 31 -44 1 -11 73 -65 115 -86 17 -9 55 -21 85 -27 30
-6 63 -19 73 -29 17 -15 19 -15 28 0 5 9 28 19 51 23 54 9 118 37 172 74 24
17 47 27 51 23 5 -4 5 -2 2 4 -4 7 7 29 25 50 17 22 42 64 57 94 23 49 26 67
26 170 0 110 -2 118 -33 182 -55 113 -174 205 -292 226 -30 6 -56 15 -58 21
-6 17 -32 13 -32 -4z m0 -61 c0 -8 7 -14 15 -14 8 0 15 9 15 19 0 17 5 19 38
14 124 -19 245 -111 298 -225 25 -55 29 -74 28 -153 -1 -114 -25 -180 -95
-258 -36 -40 -70 -66 -122 -91 -88 -43 -147 -56 -147 -32 0 9 -7 16 -15 16 -8
0 -15 -7 -15 -16 0 -10 -6 -14 -17 -10 -10 2 -34 8 -53 11 -82 17 -169 78
-223 157 -52 76 -70 151 -65 262 4 84 7 95 40 147 60 94 145 156 251 183 56
15 67 13 67 -10z"/>
<path d="M2945 5036 c-17 -7 -43 -28 -58 -45 -87 -104 -8 -261 133 -261 53 0
92 21 127 67 23 30 28 46 28 94 0 62 -17 94 -68 133 -33 25 -121 32 -162 12z
m71 -23 c-15 -4 -16 -7 -5 -15 12 -8 12 -9 0 -6 -25 7 -24 28 1 27 19 -1 20
-2 4 -6z m-36 -13 c0 -5 -9 -10 -21 -10 -13 0 -18 -4 -13 -12 4 -7 3 -8 -4 -4
-7 4 -12 2 -12 -3 0 -6 -6 -11 -12 -11 -7 0 0 12 15 25 30 26 47 32 47 15z
m119 -16 c17 -14 31 -31 31 -37 0 -7 -6 -5 -13 4 -7 9 -19 14 -27 12 -12 -4
-12 -3 -2 5 11 7 10 11 -5 17 -10 5 -27 7 -38 6 -17 -2 -17 0 -5 8 21 15 25
14 59 -15z m-183 -46 c4 -7 3 -8 -4 -4 -8 5 -12 -1 -13 -16 0 -13 -3 -17 -6
-10 -5 13 2 42 11 42 3 0 8 -5 12 -12z m84 -38 c0 -13 7 -20 20 -20 41 0 16
-56 -32 -73 -10 -4 -18 -11 -18 -17 0 -6 6 -8 13 -4 9 5 9 4 1 -5 -14 -15 -39
-4 -69 30 -11 12 -14 19 -6 14 11 -6 13 -4 8 9 -4 10 -3 15 3 11 6 -3 10 -15
10 -26 0 -11 5 -17 10 -14 6 4 8 11 5 16 -4 5 -1 9 4 9 17 0 13 39 -5 57 -13
14 -17 14 -25 2 -7 -11 -9 -9 -9 9 0 20 5 22 45 22 38 0 45 -3 45 -20z m-103
-52 c-3 -7 -5 -2 -5 12 0 14 2 19 5 13 2 -7 2 -19 0 -25z m204 -58 c-13 -11
-31 -20 -40 -19 -11 0 -10 3 5 9 12 5 25 13 29 19 3 6 12 11 18 11 7 -1 1 -10
-12 -20z"/>
<path d="M2646 4521 c-14 -16 -15 -20 -2 -30 11 -9 16 -9 22 0 4 7 3 9 -4 5
-6 -3 -13 -2 -17 4 -3 5 -2 10 3 10 6 0 12 7 16 15 7 20 3 19 -18 -4z"/>
<path d="M2675 4470 c3 -5 8 -10 11 -10 2 0 4 5 4 10 0 6 -5 10 -11 10 -5 0
-7 -4 -4 -10z"/>
<path d="M3331 4449 c-13 -11 -30 -18 -38 -15 -7 3 -13 1 -13 -4 0 -19 19 -19
46 2 16 12 31 23 33 25 2 2 2 5 0 7 -2 2 -15 -5 -28 -15z"/>
<path d="M2930 4456 c3 -3 18 -7 34 -10 16 -3 25 -2 22 1 -4 4 -19 9 -34 11
-15 2 -24 1 -22 -2z"/>
<path d="M3050 4451 c0 -5 7 -11 14 -14 10 -4 13 -1 9 9 -6 15 -23 19 -23 5z"/>
<path d="M2700 4448 c3 -2 20 -15 37 -27 22 -15 31 -17 27 -8 -3 8 -13 18 -22
21 -9 3 -24 9 -32 12 -8 4 -13 5 -10 2z"/>
<path d="M3099 4433 c-10 -11 -8 -12 6 -6 14 5 17 3 12 -10 -5 -13 -1 -17 18
-17 18 0 25 5 25 19 0 24 -45 34 -61 14z"/>
<path d="M3047 4392 c-16 -2 -38 -13 -49 -24 -13 -13 -27 -18 -41 -14 -12 3
-32 6 -45 6 -15 0 -21 4 -16 12 5 8 2 9 -9 5 -10 -3 -17 -3 -17 1 0 4 -15 7
-33 8 l-32 1 30 -13 c83 -36 259 -44 325 -15 21 9 17 10 -27 7 -42 -3 -53 -1
-55 13 -2 11 -11 15 -31 13z"/>
<path d="M3180 4396 c0 -2 6 -9 13 -15 10 -8 14 -7 14 4 0 8 -6 15 -14 15 -7
0 -13 -2 -13 -4z"/>
<path d="M3230 4390 c-8 -5 -10 -10 -5 -10 6 0 17 5 25 10 8 5 11 10 5 10 -5
0 -17 -5 -25 -10z"/>
<path d="M1924 4466 c-3 -8 -4 -25 -2 -38 3 -21 8 -23 73 -24 l70 0 -67 3
c-67 4 -68 4 -68 33 0 25 4 29 33 33 l32 4 -33 1 c-20 1 -35 -3 -38 -12z"/>
<path d="M2083 4320 c0 -41 2 -58 4 -37 2 20 2 54 0 75 -2 20 -4 3 -4 -38z"/>
<path d="M2162 4120 c0 -19 2 -27 5 -17 2 9 2 25 0 35 -3 9 -5 1 -5 -18z"/>
<path d="M3848 4529 c-22 -13 -25 -61 -3 -53 8 3 17 14 20 25 4 11 11 17 16
14 5 -3 6 1 3 9 -7 18 -13 19 -36 5z"/>
<path d="M3060 3806 c0 -16 18 -31 27 -22 3 3 -2 12 -11 21 -14 14 -16 14 -16
1z"/>
<path d="M5070 3580 c-85 -15 -194 -69 -277 -136 -90 -74 -176 -242 -189 -373
l-7 -61 197 0 c189 0 196 -1 196 -20 0 -19 -8 -20 -197 -22 -146 -2 -197 -6
-201 -15 -3 -10 41 -13 196 -13 l199 0 30 -48 c44 -72 85 -98 197 -127 116
-30 138 -44 174 -104 22 -38 27 -58 27 -116 0 -38 -4 -85 -9 -103 -8 -32 -7
-34 15 -27 13 4 49 22 80 41 155 93 270 270 293 452 l7 52 -201 0 -200 0 0 25
0 25 200 0 c153 0 200 3 200 13 0 9 -45 11 -199 9 l-200 -3 -19 43 c-19 44
-66 91 -109 111 -23 10 -23 12 -23 194 l0 183 43 -6 c23 -4 68 -15 99 -25 69
-23 79 -23 72 -4 -7 18 -115 53 -191 61 l-54 7 3 -197 3 -196 -22 0 c-22 0
-23 1 -25 193 l-3 192 -30 2 c-16 0 -50 -3 -75 -7z m184 -428 c2 -4 -12 -6
-32 -4 -62 6 -69 10 -20 11 26 0 49 -3 52 -7z m61 -42 c16 -16 27 -31 24 -33
-2 -2 -18 12 -36 30 -18 18 -29 33 -25 33 5 0 21 -13 37 -30z m-246 -19 c-12
-16 -19 -33 -16 -38 3 -4 -1 -17 -9 -28 -8 -10 -14 -14 -14 -8 0 20 21 67 37
85 25 28 26 21 2 -11z m-32 -143 c-3 -8 -6 -5 -6 6 -1 11 2 17 5 13 3 -3 4
-12 1 -19z m323 2 c0 -5 -2 -10 -4 -10 -3 0 -8 5 -11 10 -3 6 -1 10 4 10 6 0
11 -4 11 -10z m-10 -29 c0 -5 -12 -23 -26 -40 -30 -36 -64 -58 -64 -41 0 5 7
10 15 10 9 0 12 6 9 18 -4 12 -3 13 3 4 7 -10 13 -9 25 5 8 10 18 26 21 36 7
18 17 23 17 8z m-244 -59 c-10 -16 30 -28 87 -27 31 1 57 -3 57 -8 0 -4 -10
-5 -21 -2 -15 5 -19 4 -15 -4 11 -17 -37 -14 -84 5 -39 16 -47 24 -33 37 9 10
15 9 9 -1z"/>
<path d="M6145 2370 c-3 -5 -1 -10 4 -10 6 0 11 5 11 10 0 6 -2 10 -4 10 -3 0
-8 -4 -11 -10z"/>
<path d="M5863 6745 c0 -19 4 -32 8 -29 8 5 6 50 -3 59 -2 3 -5 -11 -5 -30z"/>
<path d="M7373 6753 c9 -2 23 -2 30 0 6 3 -1 5 -18 5 -16 0 -22 -2 -12 -5z"/>
<path d="M4525 6740 c-3 -5 -1 -10 4 -10 6 0 11 5 11 10 0 6 -2 10 -4 10 -3 0
-8 -4 -11 -10z"/>
<path d="M7438 6743 c6 -2 18 -2 25 0 6 3 1 5 -13 5 -14 0 -19 -2 -12 -5z"/>
<path d="M7488 6733 c6 -2 18 -2 25 0 6 3 1 5 -13 5 -14 0 -19 -2 -12 -5z"/>
<path d="M7540 6726 c0 -6 111 -38 116 -33 2 2 -15 9 -38 16 -24 7 -51 15 -60
17 -10 3 -18 3 -18 0z"/>
<path d="M4500 6715 c0 -5 5 -17 10 -25 5 -8 10 -10 10 -5 0 6 -5 17 -10 25
-5 8 -10 11 -10 5z"/>
<path d="M4535 6680 c5 -15 2 -18 -15 -15 -12 2 -18 0 -14 -6 3 -6 15 -9 25
-6 11 3 19 1 19 -4 0 -5 -5 -9 -11 -9 -6 0 -9 -6 -6 -12 2 -7 11 -12 18 -10
12 3 12 1 1 -10 -11 -11 -16 -10 -26 5 -7 9 -17 17 -21 17 -5 0 -1 -8 8 -18
10 -10 14 -22 10 -27 -5 -4 2 -4 15 0 22 6 22 6 -3 -19 -30 -30 -31 -42 -6
-56 26 -13 40 -13 21 1 -12 9 -12 10 -1 7 8 -3 17 -10 19 -18 3 -9 -2 -11 -17
-7 -11 3 -24 1 -27 -4 -3 -5 0 -9 5 -9 6 0 11 -7 11 -16 0 -8 5 -12 10 -9 6 4
8 10 5 15 -3 4 5 6 17 2 21 -5 21 -6 2 -13 -10 -4 -14 -8 -9 -8 6 -1 4 -5 -3
-9 -7 -5 -10 -16 -6 -25 3 -9 9 -15 13 -13 4 3 7 -17 6 -44 -1 -37 2 -47 13
-42 8 2 18 -1 23 -9 12 -19 11 -32 -1 -24 -5 3 -10 1 -10 -4 0 -6 7 -11 15
-11 9 0 12 -6 9 -15 -4 -11 -2 -13 9 -10 8 4 17 -1 20 -9 4 -9 13 -16 21 -16
13 0 14 -5 5 -26 -5 -15 -7 -29 -4 -32 3 -3 5 0 5 6 0 6 7 9 15 6 8 -4 12 -10
9 -15 -3 -5 7 -9 22 -9 27 0 27 -1 8 -16 -10 -8 -13 -13 -7 -9 7 3 18 1 25 -5
7 -6 22 -18 33 -26 11 -9 14 -13 8 -9 -7 3 -13 1 -13 -4 0 -6 9 -11 20 -11 11
0 20 5 20 11 0 5 5 7 11 3 8 -5 8 -9 -1 -14 -9 -5 -9 -9 -1 -14 6 -4 11 -4 11
-1 0 4 7 -1 16 -9 8 -9 22 -16 29 -16 9 0 12 -6 9 -15 -8 -20 6 -41 17 -24 6
11 12 10 27 -4 10 -9 22 -14 25 -10 4 3 7 -2 7 -13 1 -18 1 -18 16 1 16 20 16
20 9 -2 -5 -20 -3 -22 24 -18 17 2 31 -1 31 -7 0 -5 -8 -7 -17 -4 -17 7 -17 6
0 -11 18 -17 19 -17 34 2 11 14 14 15 10 4 -6 -18 10 -39 30 -39 7 0 13 5 13
10 0 6 -6 10 -13 10 -8 0 -14 7 -14 15 0 8 2 15 4 15 5 0 43 -39 43 -45 0 -3
0 -8 0 -12 0 -4 7 3 16 16 13 18 18 53 21 142 l4 119 -24 0 c-44 0 -182 40
-252 74 -162 77 -282 220 -341 409 -10 31 -22 57 -27 57 -4 0 -6 -9 -2 -20z
m18 -135 c-18 -25 -33 -32 -33 -16 0 7 37 39 48 40 2 1 -5 -10 -15 -24z"/>
<path d="M5849 6685 c-3 -29 -12 -52 -62 -155 -33 -68 -58 -102 -127 -170
-115 -115 -233 -174 -392 -195 l-48 -6 1 -112 c1 -118 7 -159 24 -157 23 4 45
22 39 32 -4 7 -2 8 5 4 6 -4 19 -2 28 6 9 7 14 8 10 2 -4 -7 6 -11 28 -12 19
-1 37 3 40 8 3 6 -1 7 -9 4 -26 -10 -18 10 9 23 19 8 25 8 25 0 0 -7 5 -5 10
3 9 13 10 13 10 0 1 -9 5 -5 10 8 8 19 13 21 30 12 25 -13 27 -2 3 16 -17 12
-17 12 2 11 12 -1 19 3 17 11 -2 10 2 10 18 2 12 -6 20 -7 20 -1 0 5 -6 12
-12 14 -7 3 -3 6 10 6 13 1 21 -3 17 -8 -3 -5 0 -13 6 -17 8 -4 9 -3 5 4 -4 7
4 14 20 18 l27 7 -26 23 c-24 20 -24 22 -6 27 10 3 17 1 13 -4 -3 -5 2 -9 11
-9 11 0 15 5 11 16 -3 8 -2 12 4 9 5 -3 18 3 30 15 21 21 28 46 8 34 -7 -4 -8
-3 -4 5 4 6 11 9 16 6 5 -3 18 0 29 7 16 10 18 15 8 27 -10 12 -9 14 6 8 11
-4 17 -1 17 9 0 8 -4 13 -9 10 -5 -4 -8 2 -7 11 2 10 9 18 17 18 8 0 13 -8 11
-20 -3 -15 -1 -17 8 -9 9 9 9 17 1 33 -8 14 -8 21 -1 21 5 0 10 4 10 10 0 5
-8 7 -17 4 -15 -5 -16 -4 -3 5 23 17 40 13 33 -6 -6 -15 -5 -16 9 -3 16 16 18
34 3 47 -4 4 -5 2 -1 -4 10 -19 1 -16 -15 4 -8 10 -9 14 -2 10 6 -4 15 -2 19
4 5 8 8 8 14 -1 5 -8 9 -7 13 4 4 9 2 16 -3 16 -21 0 -9 20 13 21 21 0 21 1 2
9 -20 9 -19 9 2 15 19 6 20 9 9 20 -22 22 -15 60 11 60 12 0 25 4 30 9 5 5 3
6 -4 2 -7 -4 -13 -2 -13 3 0 6 7 11 15 11 8 0 15 5 15 11 0 7 -10 5 -25 -5
-32 -21 -32 -21 -27 13 3 21 8 28 19 24 13 -5 13 -2 4 15 -15 28 -14 32 4 26
8 -4 12 -10 9 -15 -3 -5 3 -6 12 -2 11 4 13 8 6 11 -16 5 -15 19 1 25 6 2 2 2
-10 0 -28 -4 -29 1 -2 26 21 20 21 20 1 14 -17 -4 -20 -1 -15 16 3 12 1 21 -6
21 -6 0 -12 -7 -12 -15z m-162 -495 c-1 -12 -5 -16 -10 -11 -5 5 -6 14 -3 20
11 16 15 13 13 -9z m-102 -140 c-3 -5 -10 -10 -16 -10 -5 0 -9 5 -9 10 0 6 7
10 16 10 8 0 12 -4 9 -10z"/>
<path d="M7824 6626 c11 -9 24 -16 30 -16 12 0 7 5 -24 19 -24 11 -24 11 -6
-3z"/>
<path d="M7910 6585 c0 -2 18 -14 40 -25 22 -11 40 -18 40 -15 0 2 -18 14 -40
25 -22 11 -40 18 -40 15z"/>
<path d="M8060 6497 c0 -3 12 -12 26 -22 15 -9 23 -12 20 -6 -7 11 -46 35 -46
28z"/>
<path d="M5833 6473 c1 -26 12 -30 21 -7 3 8 2 13 -3 9 -5 -3 -11 1 -14 7 -3
7 -4 3 -4 -9z"/>
<path d="M8160 6426 c0 -2 8 -10 18 -17 15 -13 16 -12 3 4 -13 16 -21 21 -21
13z"/>
<path d="M8200 6396 c0 -2 8 -10 18 -17 15 -13 16 -12 3 4 -13 16 -21 21 -21
13z"/>
<path d="M8321 6285 c20 -22 56 -60 79 -85 l43 -45 -41 50 c-22 28 -57 66 -79
85 l-38 35 36 -40z"/>
<path d="M8444 6128 c-4 -7 -4 -10 1 -6 4 4 15 2 24 -5 14 -11 14 -10 2 6 -16
20 -18 21 -27 5z"/>
<path d="M8490 6080 c0 -5 5 -10 11 -10 5 0 7 5 4 10 -3 6 -8 10 -11 10 -2 0
-4 -4 -4 -10z"/>
<path d="M8510 6056 c0 -2 8 -10 18 -17 15 -13 16 -12 3 4 -13 16 -21 21 -21
13z"/>
<path d="M4840 6033 c5 -2 8 -9 4 -14 -3 -5 0 -9 6 -9 15 0 7 23 -8 26 -7 1
-8 0 -2 -3z"/>
<path d="M8540 6016 c0 -2 8 -10 18 -17 15 -13 16 -12 3 4 -13 16 -21 21 -21
13z"/>
<path d="M5461 5964 c0 -11 3 -14 6 -6 3 7 2 16 -1 19 -3 4 -6 -2 -5 -13z"/>
<path d="M7778 5973 c7 -3 16 -2 19 1 4 3 -2 6 -13 5 -11 0 -14 -3 -6 -6z"/>
<path d="M7470 5940 c0 -5 5 -10 10 -10 6 0 10 5 10 10 0 6 -4 10 -10 10 -5 0
-10 -4 -10 -10z"/>
<path d="M7561 5936 c-16 -19 -7 -46 14 -46 22 0 30 29 13 46 -13 13 -16 13
-27 0z"/>
<path d="M7770 5936 c4 -4 16 -4 26 2 16 9 14 10 -8 9 -15 -1 -23 -6 -18 -11z"/>
<path d="M7719 5934 c0 -5 -2 -17 -4 -26 -2 -10 1 -20 6 -24 5 -3 9 0 9 6 0 7
8 9 23 5 19 -6 20 -5 7 6 -8 8 -21 20 -27 28 -7 8 -13 11 -14 5z"/>
<path d="M8605 5916 c10 -14 19 -26 22 -26 7 0 -17 39 -28 46 -6 3 -3 -5 6
-20z"/>
<path d="M7800 5920 c0 -5 5 -10 10 -10 6 0 10 5 10 10 0 6 -4 10 -10 10 -5 0
-10 -4 -10 -10z"/>
<path d="M5293 5893 c1 -18 4 -20 19 -12 16 9 17 29 2 29 -3 0 -2 -4 1 -10 3
-5 2 -10 -4 -10 -5 0 -11 6 -14 13 -3 6 -4 2 -4 -10z"/>
<path d="M5160 5890 c0 -5 5 -10 10 -10 6 0 10 5 10 10 0 6 -4 10 -10 10 -5 0
-10 -4 -10 -10z"/>
<path d="M7773 5871 c-33 -16 -47 -38 -17 -27 9 3 19 6 22 6 4 0 13 9 20 20 7
11 11 19 10 19 -2 -1 -18 -9 -35 -18z"/>
<path d="M7530 5865 c0 -7 5 -17 12 -21 7 -4 8 -3 4 4 -4 7 -2 12 3 12 6 0 11
-4 11 -10 0 -5 5 -10 11 -10 18 0 4 23 -19 31 -16 6 -22 5 -22 -6z"/>
<path d="M7666 5872 c-3 -5 1 -9 9 -9 8 0 15 4 15 9 0 4 -4 8 -9 8 -6 0 -12
-4 -15 -8z"/>
<path d="M7356 5862 c-2 -4 4 -8 14 -8 10 0 16 4 14 8 -3 4 -9 8 -14 8 -5 0
-11 -4 -14 -8z"/>
<path d="M8647 5843 c13 -33 33 -68 33 -57 0 12 -29 74 -35 74 -3 0 -1 -8 2
-17z"/>
<path d="M5139 5791 c-29 -23 -31 -81 -4 -111 27 -30 99 -26 126 8 26 33 24
74 -4 100 -29 28 -86 29 -118 3z m99 -13 c7 -7 12 -24 12 -38 0 -14 -5 -31
-12 -38 -7 -7 -24 -12 -38 -12 -14 0 -31 5 -38 12 -7 7 -12 24 -12 38 0 14 5
31 12 38 7 7 24 12 38 12 14 0 31 -5 38 -12z"/>
<path d="M8687 5763 c-4 -3 -7 -13 -7 -22 0 -13 2 -13 9 -2 7 11 10 10 15 -6
4 -11 4 -27 1 -35 -6 -14 22 -35 32 -25 3 4 -36 97 -41 97 -1 0 -6 -3 -9 -7z"/>
<path d="M8735 5650 c-3 -5 -1 -10 4 -10 6 0 11 5 11 10 0 6 -2 10 -4 10 -3 0
-8 -4 -11 -10z"/>
<path d="M8756 5615 c5 -11 8 -38 7 -59 -1 -27 2 -35 8 -25 13 21 10 51 -7 79
-9 15 -12 17 -8 5z"/>
<path d="M8788 5534 c-3 -5 1 -22 8 -39 10 -22 13 -25 13 -10 -1 28 -14 61
-21 49z"/>
<path d="M7363 5493 c9 -2 23 -2 30 0 6 3 -1 5 -18 5 -16 0 -22 -2 -12 -5z"/>
<path d="M7428 5493 c12 -2 32 -2 45 0 12 2 2 4 -23 4 -25 0 -35 -2 -22 -4z"/>
<path d="M7590 5466 c0 -2 7 -7 16 -10 8 -3 12 -2 9 4 -6 10 -25 14 -25 6z"/>
<path d="M8810 5440 c0 -11 4 -20 9 -20 5 0 7 9 4 20 -3 11 -7 20 -9 20 -2 0
-4 -9 -4 -20z"/>
<path d="M7325 5433 c-124 -16 -239 -75 -331 -167 -95 -97 -154 -221 -154
-328 l0 -38 59 0 59 0 12 53 c44 186 176 311 363 342 l37 6 0 69 c0 39 -3 69
-7 69 -5 -1 -21 -4 -38 -6z"/>
<path d="M7660 5436 c0 -2 7 -7 16 -10 8 -3 12 -2 9 4 -6 10 -25 14 -25 6z"/>
<path d="M7420 5365 l0 -65 30 0 c44 0 135 -37 185 -76 27 -20 51 -31 60 -27
27 10 65 -17 63 -43 l-2 -24 -22 28 c-12 15 -25 24 -29 20 -4 -4 5 -21 19 -39
41 -48 73 -118 81 -176 l7 -53 64 0 c38 0 64 4 64 11 0 5 -7 41 -16 80 -10 45
-20 69 -30 69 -8 0 -14 8 -14 18 0 15 2 15 11 2 9 -12 10 -12 5 3 -3 10 -6 21
-6 23 0 3 -4 2 -10 -1 -6 -4 -9 4 -7 17 1 14 -3 22 -10 21 -7 -2 -10 3 -7 11
7 18 -135 169 -153 162 -8 -3 -11 -1 -8 4 13 21 -187 100 -254 100 -19 0 -21
-6 -21 -65z m180 15 c8 -5 11 -12 7 -17 -5 -4 -11 -3 -15 3 -4 6 -14 14 -22
17 -13 5 -13 5 0 6 8 0 22 -3 30 -9z m145 -90 c3 -6 -1 -7 -9 -4 -18 7 -21 14
-7 14 6 0 13 -4 16 -10z m-145 -20 c0 -5 -2 -10 -4 -10 -3 0 -8 5 -11 10 -3 6
-1 10 4 10 6 0 11 -4 11 -10z m175 -10 c3 -5 1 -10 -4 -10 -6 0 -11 5 -11 10
0 6 2 10 4 10 3 0 8 -4 11 -10z m-102 -30 c3 -11 1 -18 -4 -14 -5 3 -9 12 -9
20 0 20 7 17 13 -6z m147 -20 c0 -5 -4 -10 -10 -10 -5 0 -10 5 -10 10 0 6 5
10 10 10 6 0 10 -4 10 -10z m73 -159 c12 -2 8 -39 -7 -53 -18 -17 0 -58 26
-58 11 0 16 -4 13 -10 -3 -5 -28 -10 -54 -10 l-49 0 -7 48 c-4 26 -11 54 -16
64 -7 14 -4 16 21 12 17 -3 30 -1 30 5 0 5 8 8 18 6 9 -2 20 -4 25 -4z"/>
<path d="M7000 5375 c-7 -9 -11 -18 -8 -20 3 -3 11 1 18 10 7 9 11 18 8 20 -3
3 -11 -1 -18 -10z"/>
<path d="M7770 5366 c0 -2 8 -10 18 -17 15 -13 16 -12 3 4 -13 16 -21 21 -21
13z"/>
<path d="M8841 5365 c-1 -6 3 -24 8 -42 7 -22 6 -33 -2 -37 -9 -3 -9 -5 0 -5
6 -1 17 -33 24 -73 6 -40 15 -77 19 -81 10 -12 -16 148 -34 203 -8 25 -14 40
-15 35z"/>
<path d="M7816 5318 c3 -4 9 -8 15 -8 5 0 9 4 9 8 0 5 -7 9 -15 9 -8 0 -12 -4
-9 -9z"/>
<path d="M7850 5286 c0 -2 8 -10 18 -17 15 -13 16 -12 3 4 -13 16 -21 21 -21
13z"/>
<path d="M7295 5242 c-73 -25 -137 -65 -179 -113 -40 -43 -90 -141 -101 -196
l-7 -33 71 0 c57 0 71 3 71 15 0 27 47 109 82 142 69 66 178 81 267 37 60 -30
117 -99 126 -154 l6 -35 65 3 66 4 -7 36 c-27 145 -186 295 -313 296 l-44 1
-2 -52 c-1 -45 2 -53 19 -56 14 -3 11 -5 -8 -6 l-28 -1 2 63 c3 73 -5 78 -86
49z m122 -44 c-3 -8 -6 -5 -6 6 -1 11 2 17 5 13 3 -3 4 -12 1 -19z m323 -228
c0 -5 -2 -10 -4 -10 -3 0 -8 5 -11 10 -3 6 -1 10 4 10 6 0 11 -4 11 -10z"/>
<path d="M7916 5197 c3 -10 9 -15 12 -12 3 3 0 11 -7 18 -10 9 -11 8 -5 -6z"/>
<path d="M8600 5180 c0 -17 -7 -20 -40 -20 -29 0 -40 -4 -40 -15 0 -8 -9 -15
-20 -15 -11 0 -20 7 -20 15 0 12 -13 15 -56 15 -31 0 -71 7 -89 15 -23 11 -54
15 -106 12 l-74 -3 82 -2 c118 -3 118 -22 0 -22 -112 0 -157 -8 -157 -26 0 -8
-6 -14 -14 -14 -18 0 -46 -54 -47 -89 0 -16 -3 -20 -6 -11 -4 8 -12 21 -20 28
-7 7 -13 21 -13 29 0 9 -3 14 -6 11 -3 -3 2 -33 10 -66 9 -33 16 -72 16 -86
l0 -26 83 1 c59 1 72 4 47 8 l-35 7 40 7 c22 4 60 10 85 12 24 3 45 7 46 8 1
1 5 13 9 27 7 23 7 24 -11 10 -12 -10 -10 -4 6 16 14 17 27 30 29 28 2 -2 -2
-10 -9 -19 -7 -8 -8 -15 -2 -15 14 0 21 22 15 53 -3 15 -1 27 5 27 6 0 13 -10
15 -22 l4 -23 2 23 c1 21 5 22 71 22 54 0 70 -3 70 -14 0 -8 4 -17 9 -20 5 -4
7 3 4 14 -5 18 0 20 36 20 45 0 52 -9 21 -28 -11 -7 -20 -17 -20 -23 0 -6 9
-9 20 -6 13 3 20 0 20 -9 0 -8 7 -14 15 -14 8 0 15 -8 15 -19 0 -22 40 -34
118 -33 45 0 52 -3 52 -19 0 -17 8 -19 60 -19 61 0 66 4 61 47 -1 7 3 23 10
34 10 19 9 21 -5 16 -29 -11 -46 3 -46 39 0 27 -4 34 -20 34 -26 0 -28 47 -2
66 16 13 16 14 0 8 -13 -4 -18 -1 -19 12 0 11 -3 14 -5 7 -7 -16 -34 -5 -34
13 0 11 -18 14 -80 14 -73 0 -80 -2 -80 -20z m-443 -36 c-3 -3 -12 -4 -19 -1
-8 3 -5 6 6 6 11 1 17 -2 13 -5z m-40 -10 c-3 -3 -12 -4 -19 -1 -8 3 -5 6 6 6
11 1 17 -2 13 -5z m170 -76 c-3 -8 -6 -5 -6 6 -1 11 2 17 5 13 3 -3 4 -12 1
-19z m-250 -40 c-3 -8 -6 -5 -6 6 -1 11 2 17 5 13 3 -3 4 -12 1 -19z"/>
<path d="M7951 5130 c14 -31 19 -36 19 -24 0 6 -7 19 -16 30 -14 18 -14 18 -3
-6z"/>
<path d="M8886 5070 c8 -43 14 -51 14 -19 0 13 -5 31 -10 39 -7 11 -8 5 -4
-20z"/>
<path d="M7336 5056 c-108 -40 -158 -164 -106 -266 67 -132 257 -131 326 2 18
35 18 126 0 169 -18 43 -50 73 -68 63 -7 -4 -10 -4 -6 1 5 5 -1 14 -11 21 -29
21 -92 25 -135 10z m88 -107 c54 -25 55 -100 1 -135 -75 -49 -140 63 -73 126
25 23 37 24 72 9z"/>
<path d="M8418 5043 c7 -3 16 -2 19 1 4 3 -2 6 -13 5 -11 0 -14 -3 -6 -6z"/>
<path d="M8353 4956 c-21 -17 -32 -38 -37 -65 -3 -22 -12 -41 -19 -44 -6 -2
-4 -3 5 -2 10 2 20 -5 23 -16 4 -10 16 -24 28 -31 26 -14 108 -28 101 -17 -2
4 4 10 14 13 24 8 42 47 42 91 0 79 -96 123 -157 71z m105 -26 c44 -42 13
-120 -47 -120 -32 0 -45 8 -60 37 -23 44 14 103 64 103 12 0 31 -9 43 -20z"/>
<path d="M8901 4924 c0 -11 3 -14 6 -6 3 7 2 16 -1 19 -3 4 -6 -2 -5 -13z"/>
<path d="M8608 4913 c23 -2 61 -2 85 0 23 2 4 4 -43 4 -47 0 -66 -2 -42 -4z"/>
<path d="M9179 4904 c-12 -15 -36 -16 -226 -10 -210 7 -213 7 -213 -13 0 -19
-7 -21 -107 -24 -60 -2 -23 -2 80 0 141 3 187 1 182 -7 -5 -7 -19 -10 -37 -6
-32 6 -72 -9 -63 -24 3 -6 1 -18 -4 -27 -6 -10 -11 -13 -11 -7 0 16 -60 4 -60
-12 0 -10 -16 -14 -60 -14 -53 0 -60 -2 -60 -20 0 -17 -7 -20 -40 -20 l-40 0
0 -40 0 -40 -40 0 c-33 0 -40 -3 -40 -20 0 -13 -7 -20 -20 -20 -13 0 -20 -7
-20 -20 0 -17 7 -20 40 -20 l40 0 0 -80 0 -80 40 0 40 0 0 -60 c0 -53 2 -60
20 -60 13 0 20 -7 20 -20 0 -13 7 -20 20 -20 17 0 20 -7 20 -40 l0 -41 49 2
c45 2 48 4 38 21 -7 10 -15 18 -19 18 -5 0 -8 9 -8 20 0 26 17 26 25 -1 l7
-20 18 21 c13 15 20 17 25 9 6 -8 11 -7 17 5 6 10 7 20 4 23 -3 4 -6 2 -6 -4
0 -6 -11 -10 -25 -10 -14 0 -25 3 -25 7 0 13 24 26 46 25 16 -2 21 4 22 24 1
43 10 83 21 94 16 16 14 36 -6 55 -12 12 -18 13 -21 4 -6 -19 -22 -14 -22 8 0
13 7 20 20 20 11 0 20 -5 20 -11 0 -22 25 -1 27 22 2 39 9 60 19 67 10 7 30
126 38 234 2 32 7 62 11 68 4 6 56 10 130 10 100 0 124 -3 129 -15 3 -9 18
-15 35 -15 16 0 31 6 35 15 4 12 30 15 146 15 87 0 140 4 140 10 0 6 -53 10
-139 10 -111 0 -141 3 -151 15 -16 20 -44 19 -61 -1z m-292 -126 c-2 -13 -4
-5 -4 17 -1 22 1 32 4 23 2 -10 2 -28 0 -40z m-63 -366 c-6 -4 -14 -14 -17
-22 -4 -10 -6 -8 -6 8 -1 15 5 22 17 22 10 0 13 -3 6 -8z"/>
<path d="M777 4904 c-15 -15 -7 -53 13 -59 27 -8 52 12 48 39 -3 21 -46 35
-61 20z"/>
<path d="M9554 4896 c-11 -28 1 -51 25 -51 28 0 47 25 38 49 -8 20 -56 21 -63
2z"/>
<path d="M6840 4828 c1 -56 19 -120 58 -198 77 -158 239 -270 425 -295 l47 -6
0 64 0 64 -57 6 c-164 17 -313 162 -346 336 l-12 61 -57 0 -58 0 0 -32z"/>
<path d="M7021 4815 c15 -80 48 -141 108 -198 92 -88 127 -102 251 -102 95 0
111 3 167 29 105 48 196 168 210 277 l6 39 -66 0 -65 0 -7 -36 c-21 -116 -147
-205 -269 -190 -88 10 -174 90 -199 183 l-11 43 -67 0 -66 0 8 -45z"/>
<path d="M7810 4803 c-7 -32 -25 -83 -41 -114 -15 -31 -25 -60 -21 -64 4 -5 2
-5 -4 -2 -15 9 -38 -19 -28 -34 4 -7 3 -9 -3 -6 -11 7 -46 -26 -37 -35 3 -3
-3 -5 -13 -4 -10 0 -17 -5 -15 -11 1 -7 -1 -12 -5 -11 -12 4 -73 -24 -69 -31
2 -3 -9 -7 -25 -8 -16 -1 -39 -8 -51 -15 -13 -6 -35 -11 -50 -9 -28 3 -28 2
-28 -63 l0 -65 33 5 c54 10 110 24 140 36 21 8 25 13 15 20 -9 6 -6 7 9 3 16
-4 38 4 78 30 30 20 52 41 49 46 -3 5 0 8 8 7 7 -2 12 3 10 10 -1 8 2 11 7 7
12 -7 79 81 110 143 21 41 61 179 61 209 0 9 -16 13 -59 13 l-60 0 -11 -57z
m-185 -303 c-3 -5 -1 -10 6 -10 7 0 10 -3 6 -6 -9 -9 -28 6 -22 17 4 5 8 9 11
9 3 0 2 -4 -1 -10z m-98 -103 c7 0 10 -4 7 -8 -2 -4 2 -10 8 -13 7 -3 -7 -3
-31 0 -38 5 -43 4 -38 -10 4 -10 1 -16 -9 -16 -9 0 -13 5 -9 13 4 6 -1 3 -11
-8 -15 -18 -16 -18 -10 -2 3 10 6 28 6 39 0 18 4 19 38 13 20 -4 42 -8 49 -8z"/>
<path d="M8450 4695 c0 -8 7 -15 15 -15 8 0 15 7 15 15 0 8 -7 15 -15 15 -8 0
-15 -7 -15 -15z"/>
<path d="M8370 4655 c0 -8 7 -15 15 -15 8 0 15 7 15 15 0 8 -7 15 -15 15 -8 0
-15 -7 -15 -15z"/>
<path d="M8730 4137 c0 -11 -4 -15 -12 -11 -7 4 -8 3 -4 -4 5 -8 0 -12 -13
-12 -12 0 -21 -7 -21 -15 0 -20 7 -19 32 5 12 10 25 17 30 14 11 -7 10 7 -2
26 -8 13 -10 12 -10 -3z"/>
<path d="M8651 4074 c0 -11 3 -14 6 -6 3 7 2 16 -1 19 -3 4 -6 -2 -5 -13z"/>
<path d="M8715 4070 c-3 -5 -1 -10 4 -10 6 0 11 5 11 10 0 6 -2 10 -4 10 -3 0
-8 -4 -11 -10z"/>
<path d="M8699 4033 c-13 -16 -12 -17 4 -4 9 7 17 15 17 17 0 8 -8 3 -21 -13z"/>
<path d="M8649 3943 c-13 -16 -12 -17 4 -4 16 13 21 21 13 21 -2 0 -10 -8 -17
-17z"/>
<path d="M8571 3924 c0 -11 3 -14 6 -6 3 7 2 16 -1 19 -3 4 -6 -2 -5 -13z"/>
<path d="M8500 3900 c0 -11 5 -20 10 -20 6 0 10 9 10 20 0 11 -4 20 -10 20 -5
0 -10 -9 -10 -20z"/>
<path d="M7610 3785 c0 -16 6 -25 15 -25 9 0 15 9 15 25 0 16 -6 25 -15 25 -9
0 -15 -9 -15 -25z"/>
<path d="M7828 3790 c32 -20 33 -22 19 -44 -13 -19 -13 -23 -1 -23 8 0 14 9
14 19 0 13 4 17 13 12 7 -5 6 0 -3 12 -22 28 -43 43 -60 44 -8 0 0 -9 18 -20z"/>
<path d="M7757 3794 c-14 -14 7 -34 37 -33 17 0 24 3 16 6 -8 3 -22 12 -31 19
-9 8 -18 11 -22 8z"/>
<path d="M7663 3755 c-14 -31 -9 -34 58 -32 30 0 47 3 38 5 -9 1 -21 13 -27
25 l-11 22 0 -22 c-1 -16 -7 -23 -21 -23 -17 0 -19 5 -14 25 8 32 -8 32 -23 0z"/>
<path d="M7338 3763 c7 -3 16 -2 19 1 4 3 -2 6 -13 5 -11 0 -14 -3 -6 -6z"/>
<path d="M7788 3723 c6 -2 18 -2 25 0 6 3 1 5 -13 5 -14 0 -19 -2 -12 -5z"/>
<path d="M1830 3629 c0 -5 5 -7 10 -4 6 3 10 8 10 11 0 2 -4 4 -10 4 -5 0 -10
-5 -10 -11z"/>
<path d="M8537 3609 c7 -7 15 -10 18 -7 3 3 -2 9 -12 12 -14 6 -15 5 -6 -5z"/>
<path d="M8355 3559 c-4 -6 -5 -12 -2 -15 2 -3 7 2 10 11 7 17 1 20 -8 4z"/>
<path d="M8327 3505 c-15 -14 -27 -29 -27 -32 0 -4 14 6 30 22 28 26 34 35 27
35 -1 0 -15 -11 -30 -25z"/>
<path d="M8380 3430 c-12 -7 -10 -9 7 -7 12 0 19 5 17 9 -6 10 -6 10 -24 -2z"/>
<path d="M8369 3393 c-13 -16 -12 -17 4 -4 16 13 21 21 13 21 -2 0 -10 -8 -17
-17z"/>
<path d="M2050 3396 c0 -2 7 -7 16 -10 8 -3 12 -2 9 4 -6 10 -25 14 -25 6z"/>
<path d="M8190 3390 c0 -5 5 -10 11 -10 5 0 7 5 4 10 -3 6 -8 10 -11 10 -2 0
-4 -4 -4 -10z"/>
<path d="M8295 3370 c-3 -5 -1 -10 4 -10 6 0 11 5 11 10 0 6 -2 10 -4 10 -3 0
-8 -4 -11 -10z"/>
<path d="M8160 3360 c-8 -5 -12 -12 -9 -15 4 -3 12 1 19 10 14 17 11 19 -10 5z"/>
<path d="M2104 3339 c-3 -6 -2 -15 3 -20 5 -5 9 -1 9 11 0 23 -2 24 -12 9z"/>
<path d="M8260 3340 c-9 -6 -10 -10 -3 -10 6 0 15 5 18 10 8 12 4 12 -15 0z"/>
<path d="M8210 3290 c0 -5 5 -10 10 -10 6 0 10 5 10 10 0 6 -4 10 -10 10 -5 0
-10 -4 -10 -10z"/>
<path d="M2214 3262 c9 -18 21 -30 26 -27 6 4 10 8 10 11 0 3 -4 2 -10 -1 -5
-3 -10 0 -10 8 0 8 -7 21 -17 28 -15 13 -15 11 1 -19z"/>
<path d="M8175 3270 c-10 -11 -13 -20 -7 -20 7 0 12 5 12 11 0 5 4 8 8 5 5 -3
9 1 9 9 0 19 0 19 -22 -5z"/>
<path d="M2270 3236 c0 -2 8 -10 18 -17 15 -13 16 -12 3 4 -13 16 -21 21 -21
13z"/>
<path d="M8088 3217 c-15 -12 -15 -14 5 -27 19 -12 20 -11 10 2 -10 11 -10 17
-1 26 16 16 7 15 -14 -1z"/>
<path d="M8050 3196 c0 -3 9 -10 20 -16 11 -6 20 -8 20 -6 0 3 -9 10 -20 16
-11 6 -20 8 -20 6z"/>
<path d="M2535 3180 c3 -5 8 -10 11 -10 2 0 4 5 4 10 0 6 -5 10 -11 10 -5 0
-7 -4 -4 -10z"/>
<path d="M2383 3158 c0 -7 11 -14 24 -14 14 -1 31 -10 39 -20 13 -18 14 -18 8
-1 -4 10 -19 24 -35 32 -34 18 -36 18 -36 3z"/>
<path d="M8001 3167 c2 -1 13 -9 24 -17 19 -14 19 -14 6 3 -7 9 -18 17 -24 17
-6 0 -8 -1 -6 -3z"/>
<path d="M7950 3140 c-13 -8 -12 -10 3 -10 9 0 17 5 17 10 0 12 -1 12 -20 0z"/>
<path d="M2420 3121 c0 -6 4 -13 10 -16 6 -3 7 1 4 9 -7 18 -14 21 -14 7z"/>
<path d="M7920 3124 c0 -2 9 -8 20 -14 11 -6 20 -7 20 -2 0 6 -9 12 -20 15
-11 3 -20 3 -20 1z"/>
<path d="M7987 3119 c7 -7 15 -10 18 -7 3 3 -2 9 -12 12 -14 6 -15 5 -6 -5z"/>
<path d="M7880 3109 c-12 -9 -12 -10 3 -5 10 3 25 -1 34 -10 8 -8 18 -12 21
-9 5 5 -27 34 -38 35 -3 0 -12 -5 -20 -11z"/>
<path d="M2510 3100 c0 -6 5 -10 12 -10 6 0 20 -8 30 -17 16 -14 18 -14 13 -1
-7 18 -55 43 -55 28z"/>
<path d="M2465 3090 c3 -5 8 -10 11 -10 2 0 4 5 4 10 0 6 -5 10 -11 10 -5 0
-7 -4 -4 -10z"/>
<path d="M7838 3086 c-9 -8 -18 -13 -20 -11 -3 3 -5 -2 -5 -10 0 -15 26 -30
35 -20 3 3 0 5 -6 5 -7 0 -12 4 -12 10 0 5 6 7 14 4 18 -7 32 14 18 28 -6 6
-15 4 -24 -6z m22 -6 c0 -5 -5 -10 -11 -10 -5 0 -7 5 -4 10 3 6 8 10 11 10 2
0 4 -4 4 -10z"/>
<path d="M2511 3063 c-7 -8 -11 -16 -8 -19 2 -2 10 2 17 11 17 20 9 27 -9 8z"/>
<path d="M2604 3050 c0 -10 2 -17 5 -15 2 3 11 -1 19 -8 11 -9 11 -4 -2 16
-22 32 -22 32 -22 7z"/>
<path d="M7780 3060 c0 -5 5 -10 10 -10 6 0 10 5 10 10 0 6 -4 10 -10 10 -5 0
-10 -4 -10 -10z"/>
<path d="M2566 3045 c-11 -8 -14 -15 -8 -15 20 0 26 4 28 18 3 15 3 15 -20 -3z"/>
<path d="M2641 3044 c6 -7 16 -11 22 -7 7 4 8 0 3 -12 -5 -14 -4 -16 7 -7 8 7
17 9 20 5 4 -3 7 -2 7 4 0 5 -16 15 -36 21 -30 9 -33 8 -23 -4z"/>
<path d="M7478 3053 c7 -3 16 -2 19 1 4 3 -2 6 -13 5 -11 0 -14 -3 -6 -6z"/>
<path d="M7742 3036 c-11 -25 -7 -36 12 -36 6 0 5 4 -2 9 -11 7 -10 11 2 24 9
9 12 18 8 21 -5 3 -14 -5 -20 -18z"/>
<path d="M7684 3029 c-8 -13 24 -18 35 -6 7 9 5 13 -10 13 -11 0 -22 -3 -25
-7z"/>
<path d="M7925 3030 c3 -5 8 -10 11 -10 2 0 4 5 4 10 0 6 -5 10 -11 10 -5 0
-7 -4 -4 -10z"/>
<path d="M2718 3023 c6 -2 12 -9 12 -14 0 -6 -4 -7 -10 -4 -6 3 -7 -1 -4 -9 3
-9 10 -14 14 -11 5 3 11 -3 13 -12 4 -17 5 -17 6 0 0 10 6 15 11 12 6 -3 10
-1 10 5 0 7 -6 10 -14 7 -8 -3 -16 2 -19 14 -3 10 -11 19 -19 18 -10 0 -10 -2
0 -6z"/>
<path d="M7642 3015 c-12 -7 -25 -14 -27 -17 -8 -8 29 -3 43 6 7 4 12 2 12 -5
0 -7 3 -10 6 -6 3 3 2 12 -3 19 -6 11 -13 12 -31 3z"/>
<path d="M7570 2990 c0 -5 5 -10 11 -10 5 0 7 5 4 10 -3 6 -8 10 -11 10 -2 0
-4 -4 -4 -10z"/>
<path d="M2841 2985 c4 -3 19 -8 35 -11 16 -3 26 -2 23 1 -4 3 -19 8 -35 11
-16 3 -26 2 -23 -1z"/>
<path d="M7508 2984 c-3 -3 -19 -6 -34 -7 -31 -3 -40 -27 -14 -34 13 -4 13 -3
0 6 -8 5 -12 12 -9 15 8 9 50 -24 44 -35 -3 -5 1 -6 9 -3 9 3 16 10 16 16 0 5
-4 7 -9 4 -5 -3 -14 1 -21 10 -12 13 -9 14 21 9 26 -4 30 -3 19 5 -12 9 -12
10 5 7 11 -2 19 -9 17 -16 -1 -7 2 -10 8 -6 8 5 7 11 -1 21 -11 14 -41 19 -51
8z"/>
<path d="M7755 2981 c-3 -5 -2 -12 3 -15 5 -3 9 1 9 9 0 17 -3 19 -12 6z"/>
<path d="M2906 2965 c-4 -12 -2 -14 13 -6 22 12 46 -6 31 -24 -7 -8 -3 -18 13
-31 22 -19 22 -19 4 2 -22 26 -10 40 15 17 15 -14 19 -14 16 -3 -2 8 3 14 10
12 8 -1 11 2 7 8 -10 16 6 12 28 -7 11 -10 17 -12 13 -5 -4 6 -2 12 3 12 6 0
11 5 11 10 0 6 -15 9 -35 7 -19 -3 -35 -1 -35 3 0 4 -6 7 -12 7 -7 0 -27 3
-44 7 -24 5 -33 3 -38 -9z m88 -26 c-6 -11 -24 -2 -24 11 0 5 7 7 15 4 8 -4
12 -10 9 -15z"/>
<path d="M7650 2976 c0 -2 7 -7 16 -10 8 -3 12 -2 9 4 -6 10 -25 14 -25 6z"/>
<path d="M2800 2961 c0 -6 4 -13 10 -16 6 -3 7 1 4 9 -7 18 -14 21 -14 7z"/>
<path d="M7360 2959 c0 -9 31 -21 38 -14 3 3 0 5 -7 5 -7 0 -10 4 -7 8 3 5 -1
9 -9 9 -8 0 -15 -4 -15 -8z"/>
<path d="M7407 2959 c7 -7 15 -10 18 -7 3 3 -2 9 -12 12 -14 6 -15 5 -6 -5z"/>
<path d="M3101 2941 c-15 -28 -14 -38 3 -16 17 23 48 14 40 -12 -5 -15 -4 -15
4 -3 6 8 8 18 5 23 -4 6 5 7 21 3 15 -4 26 -2 26 4 0 5 -13 10 -29 10 -16 0
-36 3 -44 6 -9 3 -20 -3 -26 -15z"/>
<path d="M7283 2945 c2 -5 15 -10 30 -10 14 -1 24 2 21 6 -2 4 2 9 8 12 7 2
-4 3 -25 3 -20 -1 -36 -5 -34 -11z"/>
<path d="M2853 2935 c0 -8 4 -12 9 -9 4 3 8 9 8 15 0 5 -4 9 -8 9 -5 0 -9 -7
-9 -15z"/>
<path d="M7193 2935 c0 -8 4 -12 8 -9 4 2 11 0 14 -6 5 -8 11 -7 22 1 11 10
19 10 34 1 18 -11 18 -11 8 7 -15 24 -63 26 -55 2 5 -13 4 -13 -8 2 -16 21
-23 22 -23 2z"/>
<path d="M2890 2930 c0 -5 5 -10 11 -10 5 0 7 5 4 10 -3 6 -8 10 -11 10 -2 0
-4 -4 -4 -10z"/>
<path d="M2469 2342 c-14 -10 -19 -23 -17 -44 4 -37 26 -53 61 -44 37 9 34 24
-5 22 -38 -1 -49 22 -22 48 12 13 19 14 30 5 11 -9 18 -9 29 1 22 18 35 3 35
-41 0 -21 5 -39 10 -39 6 0 10 18 10 40 0 35 3 40 23 40 19 0 26 -8 36 -40 16
-53 36 -51 55 7 19 55 19 53 5 53 -5 0 -15 -14 -21 -32 l-11 -31 -18 35 -18
36 -81 -1 c-53 0 -87 -5 -101 -15z"/>
<path d="M3030 2312 c0 -56 8 -69 27 -44 12 16 14 16 24 0 5 -10 14 -18 19
-18 5 0 8 8 8 18 -1 9 2 27 6 39 8 25 -24 53 -61 53 -21 0 -23 -5 -23 -48z
m60 3 c0 -8 -7 -15 -15 -15 -8 0 -15 7 -15 15 0 8 7 15 15 15 8 0 15 -7 15
-15z"/>
<path d="M7270 2341 c-8 -16 -5 -23 15 -39 32 -26 32 -34 -2 -26 -25 7 -27 6
-14 -9 17 -21 45 -22 62 -1 11 14 10 20 -14 40 -32 28 -34 34 -7 34 11 0 20 5
20 10 0 18 -49 11 -60 -9z"/>
<path d="M7357 2353 c-2 -5 -4 -28 -3 -53 1 -43 2 -45 34 -48 18 -2 32 1 32 7
0 6 -9 11 -20 11 -27 0 -25 28 3 33 l22 4 -22 8 c-28 9 -30 25 -3 25 11 0 20
5 20 10 0 12 -57 14 -63 3z"/>
<path d="M7447 2353 c-9 -15 -6 -93 5 -99 4 -3 8 6 8 20 0 33 13 33 34 1 28
-43 47 -32 44 25 -3 53 -21 69 -26 24 l-4 -26 -27 33 c-17 20 -30 28 -34 22z"/>
<path d="M7662 2348 c-18 -18 -15 -36 8 -48 29 -16 25 -33 -6 -26 -19 5 -25 3
-22 -6 7 -19 43 -21 61 -3 19 19 13 42 -14 50 -10 4 -19 11 -19 16 0 6 9 7 20
4 24 -7 27 10 4 19 -20 8 -18 8 -32 -6z"/>
<path d="M2365 2314 c-19 -46 -20 -73 -3 -56 16 16 55 15 61 0 2 -7 8 -10 12
-6 11 10 -26 98 -41 98 -8 0 -21 -16 -29 -36z m35 -4 c0 -5 -5 -10 -11 -10 -5
0 -7 5 -4 10 3 6 8 10 11 10 2 0 4 -4 4 -10z"/>
<path d="M2752 2304 c-23 -46 -22 -68 0 -46 15 15 51 15 66 0 9 -9 12 -9 12 0
0 18 -39 92 -48 92 -5 0 -18 -21 -30 -46z m38 -4 c0 -5 -5 -10 -11 -10 -5 0
-7 5 -4 10 3 6 8 10 11 10 2 0 4 -4 4 -10z"/>
<path d="M2832 2337 c9 -7 18 -29 20 -48 4 -46 22 -44 26 4 2 24 8 37 18 37 8
0 14 5 14 10 0 6 -21 10 -47 10 -41 -1 -46 -2 -31 -13z"/>
<path d="M2932 2338 c-7 -7 -12 -24 -12 -38 0 -31 17 -50 45 -50 28 0 45 19
45 50 0 31 -17 50 -45 50 -12 0 -26 -5 -33 -12z m54 -23 c8 -20 -13 -45 -32
-38 -14 5 -19 34 -7 46 11 12 33 7 39 -8z"/>
<path d="M3130 2330 c0 -10 9 -24 20 -30 28 -15 25 -32 -5 -24 -19 5 -25 2
-25 -10 0 -11 9 -16 28 -16 52 0 70 42 27 62 -28 13 -23 32 6 23 11 -4 19 -2
19 4 0 6 -16 11 -35 11 -28 0 -35 -4 -35 -20z"/>
<path d="M7567 2343 c-14 -14 -6 -34 18 -45 14 -6 25 -16 25 -21 0 -5 -11 -7
-25 -5 -17 4 -25 1 -25 -8 0 -15 27 -18 54 -8 27 10 20 51 -9 58 -14 4 -23 11
-19 17 3 6 12 8 20 5 7 -3 16 -1 19 4 7 11 -48 14 -58 3z"/>
<path d="M7742 2338 c-20 -20 -15 -66 9 -78 47 -26 100 25 72 69 -13 20 -64
26 -81 9z m56 -35 c-3 -31 -34 -44 -44 -19 -9 24 3 46 26 46 17 0 21 -5 18
-27z"/>
<path d="M7848 2300 c4 -49 22 -72 22 -27 l0 22 20 -25 c24 -32 29 -25 23 33
-5 45 -7 47 -37 47 l-31 0 3 -50z m42 20 c0 -5 -4 -10 -10 -10 -5 0 -10 5 -10
10 0 6 5 10 10 10 6 0 10 -4 10 -10z"/>
<path d="M7947 2343 c-14 -14 -6 -34 18 -45 14 -6 25 -15 25 -20 0 -4 -11 -8
-25 -8 -14 0 -25 -4 -25 -10 0 -11 30 -13 54 -4 24 9 19 43 -9 56 -25 11 -26
31 -1 22 8 -3 17 -1 21 5 7 12 -47 16 -58 4z"/>
<path d="M6585 1800 c-3 -6 1 -7 9 -4 18 7 21 14 7 14 -6 0 -13 -4 -16 -10z"/>
<path d="M6391 1646 c-9 -11 -9 -16 0 -22 7 -4 9 -3 5 4 -3 6 2 15 11 21 10 6
13 11 7 11 -6 0 -17 -6 -23 -14z"/>
<path d="M3970 1636 c0 -2 7 -7 16 -10 8 -3 12 -2 9 4 -6 10 -25 14 -25 6z"/>
<path d="M6260 1560 c0 -5 5 -10 11 -10 5 0 7 5 4 10 -3 6 -8 10 -11 10 -2 0
-4 -4 -4 -10z"/>
<path d="M4140 1556 c0 -2 7 -7 16 -10 8 -3 12 -2 9 4 -6 10 -25 14 -25 6z"/>
<path d="M4146 1518 c3 -5 10 -6 15 -3 13 9 11 12 -6 12 -8 0 -12 -4 -9 -9z"/>
<path d="M6196 1517 c3 -10 9 -15 12 -12 3 3 0 11 -7 18 -10 9 -11 8 -5 -6z"/>
<path d="M6156 1510 c-18 -6 -18 -7 4 -13 28 -7 32 -6 22 9 -4 6 -16 8 -26 4z"/>
<path d="M6110 1478 c-19 -5 -43 -9 -54 -9 -23 0 -16 -8 13 -14 11 -2 21 -1
21 3 0 4 9 9 20 10 11 1 29 3 39 4 11 1 17 6 15 10 -6 9 -7 9 -54 -4z"/>
<path d="M6010 1445 c0 -2 9 -9 20 -15 16 -9 18 -8 14 5 -5 13 -34 22 -34 10z"/>
<path d="M4445 1421 c-3 -5 -1 -12 5 -16 5 -3 10 1 10 9 0 18 -6 21 -15 7z"/>
<path d="M5950 1422 c-8 -4 -16 -13 -18 -20 -1 -8 2 -11 8 -7 5 3 10 1 10 -6
0 -7 7 -4 15 7 24 31 18 41 -15 26z"/>
<path d="M4479 1417 c0 -1 -2 -13 -5 -27 -3 -21 -2 -22 7 -7 5 9 15 17 20 17
6 0 8 -4 5 -8 -3 -5 1 -9 9 -9 23 0 18 13 -10 25 -14 6 -25 11 -26 9z"/>
<path d="M5886 1403 c-4 -5 -13 -8 -18 -8 -6 0 -13 -4 -15 -10 -1 -5 12 -10
30 -10 25 0 33 4 35 18 1 19 1 19 -14 1 -14 -17 -15 -17 -10 -1 6 18 4 21 -8
10z"/>
<path d="M4545 1390 c-3 -5 -1 -10 4 -10 6 0 11 5 11 10 0 6 -2 10 -4 10 -3 0
-8 -4 -11 -10z"/>
<path d="M4595 1360 c3 -5 8 -10 11 -10 2 0 4 5 4 10 0 6 -5 10 -11 10 -5 0
-7 -4 -4 -10z"/>
<path d="M4657 1346 c-4 -10 -1 -13 8 -9 8 3 12 9 9 14 -7 12 -11 11 -17 -5z"/>
<path d="M4557 1339 c7 -7 15 -10 18 -7 3 3 -2 9 -12 12 -14 6 -15 5 -6 -5z"/>
<path d="M4731 1334 c0 -11 3 -14 6 -6 3 7 2 16 -1 19 -3 4 -6 -2 -5 -13z"/>
<path d="M5700 1341 c0 -5 7 -12 16 -15 14 -5 15 -4 4 9 -14 17 -20 19 -20 6z"/>
<path d="M5816 1342 c-3 -5 1 -9 9 -9 8 0 12 4 9 9 -3 4 -7 8 -9 8 -2 0 -6 -4
-9 -8z"/>
<path d="M5650 1336 c0 -2 7 -7 16 -10 8 -3 12 -2 9 4 -6 10 -25 14 -25 6z"/>
<path d="M4810 1319 c0 -6 -8 -18 -17 -26 -16 -13 -16 -13 4 -3 27 13 36 27
23 35 -5 3 -10 1 -10 -6z"/>
<path d="M5616 1318 c3 -5 10 -6 15 -3 13 9 11 12 -6 12 -8 0 -12 -4 -9 -9z"/>
<path d="M4863 1305 c0 -8 4 -12 9 -9 5 3 6 10 3 15 -9 13 -12 11 -12 -6z"/>
<path d="M5544 1309 c-3 -6 2 -18 12 -27 17 -16 17 -16 5 0 -7 9 -10 22 -6 28
3 5 4 10 1 10 -3 0 -8 -5 -12 -11z"/>
<path d="M5644 1309 c-4 -7 -3 -9 4 -5 5 3 13 0 15 -6 4 -9 6 -10 6 -1 1 17
-16 25 -25 12z"/>
<path d="M4913 1288 c-2 -18 0 -20 7 -8 8 12 10 13 10 1 0 -8 2 -12 5 -9 7 7
-5 38 -14 38 -4 0 -8 -10 -8 -22z"/>
<path d="M5465 1290 c10 -11 20 -20 23 -20 3 0 -3 9 -13 20 -10 11 -20 20 -23
20 -3 0 3 -9 13 -20z"/>
<path d="M5590 1306 c0 -2 7 -9 15 -16 9 -7 15 -8 15 -2 0 5 -7 12 -15 16 -8
3 -15 4 -15 2z"/>
<path d="M5410 1296 c0 -2 7 -7 16 -10 8 -3 12 -2 9 4 -6 10 -25 14 -25 6z"/>
<path d="M5500 1291 c0 -6 4 -13 10 -16 6 -3 7 1 4 9 -7 18 -14 21 -14 7z"/>
<path d="M5007 1279 c7 -7 15 -10 18 -7 3 3 -2 9 -12 12 -14 6 -15 5 -6 -5z"/>
<path d="M5080 1280 c-9 -6 -10 -10 -3 -10 6 0 15 5 18 10 8 12 4 12 -15 0z"/>
<path d="M5345 1280 c-2 -4 7 -6 21 -4 35 3 41 12 9 12 -14 0 -27 -4 -30 -8z"/>
<path d="M4960 1250 c-12 -7 -10 -9 7 -7 12 0 19 5 17 9 -6 10 -6 10 -24 -2z"/>
</g>
</svg>
